<?xml version="1.0" encoding="UTF-8" standalone="no"?>
<svg
   xmlns:dc="http://purl.org/dc/elements/1.1/"
   xmlns:cc="http://creativecommons.org/ns#"
   xmlns:rdf="http://www.w3.org/1999/02/22-rdf-syntax-ns#"
   xmlns:svg="http://www.w3.org/2000/svg"
   xmlns="http://www.w3.org/2000/svg"
   xmlns:sodipodi="http://sodipodi.sourceforge.net/DTD/sodipodi-0.dtd"
   xmlns:inkscape="http://www.inkscape.org/namespaces/inkscape"
   width="500"
   zoomAndPan="magnify"
   viewBox="0 0 375 374.999991"
   height="500"
   preserveAspectRatio="xMidYMid meet"
   version="1.0"
   id="svg4829"
   sodipodi:docname="LogoSvg.svg"
   inkscape:version="0.92.3 (2405546, 2018-03-11)">
  <metadata
     id="metadata4833">
    <rdf:RDF>
      <cc:Work
         rdf:about="">
        <dc:format>image/svg+xml</dc:format>
        <dc:type
           rdf:resource="http://purl.org/dc/dcmitype/StillImage" />
      </cc:Work>
    </rdf:RDF>
  </metadata>
  <sodipodi:namedview
     pagecolor="#ffffff"
     bordercolor="#666666"
     borderopacity="1"
     objecttolerance="10"
     gridtolerance="10"
     guidetolerance="10"
     inkscape:pageopacity="0"
     inkscape:pageshadow="2"
     inkscape:window-width="1920"
     inkscape:window-height="1017"
     id="namedview4831"
     showgrid="false"
     inkscape:zoom="1.7"
     inkscape:cx="142.64706"
     inkscape:cy="250"
     inkscape:window-x="-8"
     inkscape:window-y="-8"
     inkscape:window-maximized="1"
     inkscape:current-layer="svg4829" />
  <defs
     id="defs4547">
    <g
       id="g4461" />
    <clipPath
       id="3edfa1a2c6">
      <path
         d="M 93.800781 84.855469 L 281.300781 84.855469 L 281.300781 272.355469 L 93.800781 272.355469 Z M 93.800781 84.855469 "
         clip-rule="nonzero"
         id="path4463" />
    </clipPath>
    <clipPath
       id="c01541958b">
      <path
         d="M 110.703125 103.554688 L 260.703125 103.554688 L 260.703125 253.554688 L 110.703125 253.554688 Z M 110.703125 103.554688 "
         clip-rule="nonzero"
         id="path4466" />
    </clipPath>
    <clipPath
       id="6a0061ce29">
      <path
         d="M 166 107 L 260.703125 107 L 260.703125 197 L 166 197 Z M 166 107 "
         clip-rule="nonzero"
         id="path4469" />
    </clipPath>
    <clipPath
       id="9f66fb71c4">
      <path
         d="M 110.703125 129 L 131 129 L 131 173 L 110.703125 173 Z M 110.703125 129 "
         clip-rule="nonzero"
         id="path4472" />
    </clipPath>
    <clipPath
       id="edcd882150">
      <path
         d="M 110.703125 103.554688 L 260.703125 103.554688 L 260.703125 253.554688 L 110.703125 253.554688 Z M 110.703125 103.554688 "
         clip-rule="nonzero"
         id="path4475" />
    </clipPath>
    <clipPath
       id="5b0f271b9b">
      <path
         d="M 213 203 L 248.15625 203 L 248.15625 238.164062 L 213 238.164062 Z M 213 203 "
         clip-rule="nonzero"
         id="path4478" />
    </clipPath>
    <clipPath
       id="293188e52b">
      <path
         d="M 122.90625 203 L 158 203 L 158 238.164062 L 122.90625 238.164062 Z M 122.90625 203 "
         clip-rule="nonzero"
         id="path4481" />
    </clipPath>
    <clipPath
       id="11980ee697">
      <path
         d="M 160.8125 182.382812 L 210.3125 182.382812 L 210.3125 229.632812 L 160.8125 229.632812 Z M 160.8125 182.382812 "
         clip-rule="nonzero"
         id="path4484" />
    </clipPath>
    <clipPath
       id="622083eef2">
      <path
         d="M 212 202 L 250 202 L 250 239 L 212 239 Z M 212 202 "
         clip-rule="nonzero"
         id="path4487" />
    </clipPath>
    <clipPath
       id="2254c579d5">
      <path
         d="M 214.644531 199.550781 L 251.027344 204.726562 L 246.0625 239.625 L 209.679688 234.449219 Z M 214.644531 199.550781 "
         clip-rule="nonzero"
         id="path4490" />
    </clipPath>
    <clipPath
       id="043bc5b512">
      <path
         d="M 214.644531 199.550781 L 251.027344 204.726562 L 246.0625 239.625 L 209.679688 234.449219 Z M 214.644531 199.550781 "
         clip-rule="nonzero"
         id="path4493" />
    </clipPath>
    <clipPath
       id="62b111437c">
      <path
         d="M 122 202 L 159 202 L 159 239 L 122 239 Z M 122 202 "
         clip-rule="nonzero"
         id="path4496" />
    </clipPath>
    <clipPath
       id="4acfddfdf8">
      <path
         d="M 120.140625 205.050781 L 156.519531 199.859375 L 161.5 234.757812 L 125.117188 239.945312 Z M 120.140625 205.050781 "
         clip-rule="nonzero"
         id="path4499" />
    </clipPath>
    <clipPath
       id="f27001900a">
      <path
         d="M 156.765625 199.824219 L 120.382812 205.015625 L 125.359375 239.910156 L 161.742188 234.722656 Z M 156.765625 199.824219 "
         clip-rule="nonzero"
         id="path4502" />
    </clipPath>
    <clipPath
       id="e2822a07da">
      <path
         d="M 121 201 L 159 201 L 159 239 L 121 239 Z M 121 201 "
         clip-rule="nonzero"
         id="path4505" />
    </clipPath>
    <clipPath
       id="8cff9d04aa">
      <path
         d="M 119.789062 203.941406 L 156.914062 198.648438 L 161.996094 234.285156 L 124.871094 239.582031 Z M 119.789062 203.941406 "
         clip-rule="nonzero"
         id="path4508" />
    </clipPath>
    <clipPath
       id="0f6acecb04">
      <path
         d="M 157.027344 198.628906 L 119.902344 203.925781 L 124.988281 239.566406 L 162.109375 234.269531 Z M 157.027344 198.628906 "
         clip-rule="nonzero"
         id="path4511" />
    </clipPath>
    <clipPath
       id="c9821bc345">
      <path
         d="M 160.3125 181.433594 L 211.3125 181.433594 L 211.3125 229.433594 L 160.3125 229.433594 Z M 160.3125 181.433594 "
         clip-rule="nonzero"
         id="path4514" />
    </clipPath>
    <clipPath
       id="e49c87e390">
      <path
         d="M 211 200 L 251 200 L 251 239 L 211 239 Z M 211 200 "
         clip-rule="nonzero"
         id="path4517" />
    </clipPath>
    <clipPath
       id="2f0d4f0d26">
      <path
         d="M 213.867188 198.113281 L 251.738281 203.5 L 246.5625 239.882812 L 208.691406 234.496094 Z M 213.867188 198.113281 "
         clip-rule="nonzero"
         id="path4520" />
    </clipPath>
    <clipPath
       id="e183187ff6">
      <path
         d="M 213.867188 198.113281 L 251.738281 203.5 L 246.5625 239.882812 L 208.691406 234.496094 Z M 213.867188 198.113281 "
         clip-rule="nonzero"
         id="path4523" />
    </clipPath>
    <clipPath
       id="df0393a001">
      <path
         d="M 120 199 L 161 199 L 161 240 L 120 240 Z M 120 199 "
         clip-rule="nonzero"
         id="path4526" />
    </clipPath>
    <clipPath
       id="3b5c8a4d6d">
      <path
         d="M 118.144531 202.769531 L 158.238281 197.050781 L 163.746094 235.660156 L 123.648438 241.378906 Z M 118.144531 202.769531 "
         clip-rule="nonzero"
         id="path4529" />
    </clipPath>
    <clipPath
       id="46252a8615">
      <path
         d="M 158.285156 197.046875 L 118.191406 202.761719 L 123.695312 241.371094 L 163.789062 235.65625 Z M 158.285156 197.046875 "
         clip-rule="nonzero"
         id="path4532" />
    </clipPath>
    <clipPath
       id="a03c107257">
      <path
         d="M 159.433594 180.59375 L 211.933594 180.59375 L 211.933594 230.84375 L 159.433594 230.84375 Z M 159.433594 180.59375 "
         clip-rule="nonzero"
         id="path4535" />
    </clipPath>
    <clipPath
       id="90dc95be38">
      <path
         d="M 210 199 L 252 199 L 252 240 L 210 240 Z M 210 199 "
         clip-rule="nonzero"
         id="path4538" />
    </clipPath>
    <clipPath
       id="4d7998e437">
      <path
         d="M 212.875 196.667969 L 253.714844 202.476562 L 248.222656 241.085938 L 207.382812 235.277344 Z M 212.875 196.667969 "
         clip-rule="nonzero"
         id="path4541" />
    </clipPath>
    <clipPath
       id="a01532700d">
      <path
         d="M 212.875 196.667969 L 253.714844 202.476562 L 248.222656 241.085938 L 207.382812 235.277344 Z M 212.875 196.667969 "
         clip-rule="nonzero"
         id="path4544" />
    </clipPath>
  </defs>
  <g
     clip-path="url(#3edfa1a2c6)"
     id="g4555"
     inkscape:export-xdpi="96"
     inkscape:export-ydpi="96"
     style="fill:#ffffff;fill-opacity:1">
    <path
       stroke-linecap="butt"
       transform="matrix(0.369677, 0, 0, 0.369677, 93.798939, 84.892391)"
       fill="none"
       stroke-linejoin="miter"
       d="M 503.189709 253.500152 C 503.189709 257.578886 503.094609 261.668186 502.893842 265.74692 C 502.693076 269.825654 502.386642 273.893821 501.985109 277.951422 C 501.594142 282.019589 501.086942 286.066623 500.495209 290.113656 C 499.892909 294.150124 499.195509 298.165457 498.392442 302.170225 C 497.599942 306.174992 496.701775 310.158626 495.708508 314.121126 C 494.715241 318.083626 493.626875 322.014427 492.443408 325.924094 C 491.259941 329.833761 489.981374 333.711728 488.597141 337.557995 C 487.223474 341.393696 485.754707 345.208263 484.19084 348.980563 C 482.626973 352.752864 480.978573 356.482898 479.224506 360.170665 C 477.481006 363.868999 475.642406 367.514499 473.719272 371.117733 C 471.796139 374.7104 469.777905 378.271367 467.685705 381.768934 C 465.582938 385.266501 463.395638 388.721801 461.123804 392.113702 C 458.862537 395.505602 456.50617 398.844669 454.075837 402.130903 C 451.634936 405.40657 449.130636 408.629404 446.531236 411.778271 C 443.942402 414.937705 441.279602 418.023172 438.532268 421.055805 C 435.795501 424.077872 432.974201 427.036539 430.0895 429.92124 C 427.194233 432.80594 424.246133 435.62724 421.213499 438.364007 C 418.191432 441.111341 415.095399 443.774141 411.935965 446.362975 C 408.776531 448.951809 405.564264 451.466676 402.278031 453.897009 C 399.002363 456.327343 395.663296 458.68371 392.260829 460.955543 C 388.868929 463.21681 385.413629 465.40411 381.916061 467.506877 C 378.407928 469.599078 374.857527 471.617311 371.254294 473.540445 C 367.65106 475.463578 364.005559 477.302179 360.307226 479.045679 C 356.619458 480.789179 352.889425 482.448146 349.117124 484.012013 C 345.334257 485.565313 341.530257 487.044646 337.68399 488.418313 C 333.837722 489.79198 329.959755 491.070547 326.050088 492.254014 C 322.140421 493.43748 318.209621 494.525847 314.24712 495.519114 C 310.28462 496.512381 306.300986 497.410548 302.285652 498.203048 C 298.280885 499.006114 294.254984 499.703515 290.218517 500.295248 C 286.18205 500.897548 282.12445 501.394181 278.056283 501.795715 C 273.998682 502.197248 269.919948 502.503682 265.841214 502.704448 C 261.762481 502.894648 257.683747 503.000315 253.594446 503.000315 C 249.515712 503.000315 245.426412 502.894648 241.347678 502.704448 C 237.268944 502.503682 233.200777 502.197248 229.13261 501.795715 C 225.064443 501.394181 221.017409 500.897548 216.970375 500.295248 C 212.933908 499.703515 208.908008 499.006114 204.903241 498.203048 C 200.898473 497.410548 196.91484 496.512381 192.952339 495.519114 C 188.989839 494.525847 185.048472 493.43748 181.138804 492.254014 C 177.229137 491.070547 173.35117 489.79198 169.504903 488.418313 C 165.658636 487.044646 161.854635 485.565313 158.082335 484.012013 C 154.310035 482.448146 150.569434 480.789179 146.881667 479.045679 C 143.183333 477.302179 139.537833 475.463578 135.934599 473.540445 C 132.331365 471.617311 128.780965 469.599078 125.272831 467.506877 C 121.775264 465.40411 118.319964 463.21681 114.928063 460.955543 C 111.536163 458.68371 108.197096 456.327343 104.910862 453.897009 C 101.635195 451.466676 98.412361 448.951809 95.252928 446.362975 C 92.093494 443.774141 89.008027 441.111341 85.975393 438.364007 C 82.953326 435.62724 79.994659 432.80594 77.109959 429.92124 C 74.214692 427.036539 71.403958 424.077872 68.656624 421.055805 C 65.909291 418.023172 63.24649 414.937705 60.657657 411.778271 C 58.068823 408.629404 55.553956 405.40657 53.123623 402.130903 C 50.682722 398.844669 48.336922 395.505602 46.065088 392.113702 C 43.793255 388.721801 41.605955 385.266501 39.513754 381.768934 C 37.410987 378.271367 35.392754 374.7104 33.46962 371.117733 C 31.546487 367.514499 29.707887 363.868999 27.964386 360.170665 C 26.220886 356.482898 24.561919 352.752864 22.998052 348.980563 C 21.434186 345.208263 19.965419 341.393696 18.591752 337.557995 C 17.218085 333.711728 15.928952 329.833761 14.745485 325.924094 C 13.562018 322.014427 12.473651 318.083626 11.480384 314.121126 C 10.487118 310.158626 9.588951 306.174992 8.796451 302.170225 C 8.003951 298.165457 7.295984 294.150124 6.70425 290.113656 C 6.10195 286.066623 5.605317 282.019589 5.203784 277.951422 C 4.80225 273.893821 4.495817 269.825654 4.305617 265.74692 C 4.10485 261.668186 3.999184 257.578886 3.999184 253.500152 C 3.999184 249.421418 4.10485 245.332118 4.305617 241.253384 C 4.495817 237.17465 4.80225 233.106483 5.203784 229.048883 C 5.605317 224.980715 6.10195 220.933682 6.70425 216.886648 C 7.295984 212.850181 8.003951 208.834847 8.796451 204.83008 C 9.588951 200.825313 10.487118 196.841679 11.480384 192.879178 C 12.473651 188.916678 13.562018 184.985877 14.745485 181.07621 C 15.928952 177.166543 17.218085 173.288576 18.591752 169.442309 C 19.965419 165.606608 21.434186 161.792041 22.998052 158.019741 C 24.561919 154.24744 26.220886 150.517407 27.964386 146.82964 C 29.707887 143.131306 31.546487 139.485805 33.46962 135.882572 C 35.392754 132.289905 37.410987 128.728937 39.513754 125.23137 C 41.605955 121.733803 43.793255 118.278503 46.065088 114.886602 C 48.336922 111.494702 50.682722 108.155635 53.123623 104.869401 C 55.553956 101.593734 58.068823 98.370901 60.657657 95.222033 C 63.24649 92.0626 65.909291 88.966566 68.656624 85.944499 C 71.403958 82.922432 74.214692 79.963765 77.109959 77.079065 C 79.994659 74.194364 82.953326 71.373064 85.975393 68.636297 C 89.008027 65.888963 92.093494 63.226163 95.252928 60.637329 C 98.412361 58.048496 101.635195 55.533629 104.910862 53.103295 C 108.197096 50.662395 111.536163 48.316595 114.928063 46.044761 C 118.319964 43.783494 121.775264 41.596194 125.272831 39.493427 C 128.780965 37.401227 132.331365 35.382993 135.934599 33.45986 C 139.537833 31.536726 143.183333 29.698126 146.881667 27.954626 C 150.569434 26.211125 154.310035 24.552158 158.082335 22.988292 C 161.854635 21.424425 165.658636 19.955658 169.504903 18.581991 C 173.35117 17.208324 177.229137 15.929757 181.138804 14.746291 C 185.048472 13.562824 188.989839 12.474457 192.952339 11.48119 C 196.91484 10.487923 200.898473 9.589757 204.903241 8.797257 C 208.908008 7.99419 212.933908 7.29679 216.970375 6.705056 C 221.017409 6.102756 225.064443 5.606123 229.13261 5.20459 C 233.200777 4.803056 237.268944 4.496623 241.347678 4.295856 C 245.426412 4.095089 249.515712 3.999989 253.594446 3.999989 C 257.683747 3.999989 261.762481 4.095089 265.841214 4.295856 C 269.919948 4.496623 273.998682 4.803056 278.056283 5.20459 C 282.12445 5.606123 286.18205 6.102756 290.218517 6.705056 C 294.254984 7.29679 298.280885 7.99419 302.285652 8.797257 C 306.300986 9.589757 310.28462 10.487923 314.24712 11.48119 C 318.209621 12.474457 322.140421 13.562824 326.050088 14.746291 C 329.959755 15.929757 333.837722 17.208324 337.68399 18.581991 C 341.530257 19.955658 345.334257 21.424425 349.117124 22.988292 C 352.889425 24.552158 356.619458 26.211125 360.307226 27.954626 C 364.005559 29.698126 367.65106 31.536726 371.254294 33.45986 C 374.857527 35.382993 378.407928 37.401227 381.916061 39.493427 C 385.413629 41.596194 388.868929 43.783494 392.260829 46.044761 C 395.663296 48.316595 399.002363 50.662395 402.278031 53.103295 C 405.564264 55.533629 408.776531 58.048496 411.935965 60.637329 C 415.095399 63.226163 418.191432 65.888963 421.213499 68.636297 C 424.246133 71.373064 427.194233 74.194364 430.0895 77.079065 C 432.974201 79.963765 435.795501 82.922432 438.532268 85.944499 C 441.279602 88.966566 443.942402 92.0626 446.531236 95.222033 C 449.130636 98.370901 451.634936 101.593734 454.075837 104.869401 C 456.50617 108.155635 458.862537 111.494702 461.123804 114.886602 C 463.395638 118.278503 465.582938 121.733803 467.685705 125.23137 C 469.777905 128.728937 471.796139 132.289905 473.719272 135.882572 C 475.642406 139.485805 477.481006 143.131306 479.224506 146.82964 C 480.978573 150.517407 482.626973 154.24744 484.19084 158.019741 C 485.754707 161.792041 487.223474 165.606608 488.597141 169.442309 C 489.981374 173.288576 491.259941 177.166543 492.443408 181.07621 C 493.626875 184.985877 494.715241 188.916678 495.708508 192.879178 C 496.701775 196.841679 497.599942 200.825313 498.392442 204.83008 C 499.195509 208.834847 499.892909 212.850181 500.495209 216.886648 C 501.086942 220.933682 501.594142 224.980715 501.985109 229.048883 C 502.386642 233.106483 502.693076 237.17465 502.893842 241.253384 C 503.094609 245.332118 503.189709 249.421418 503.189709 253.500152 Z M 503.189709 253.500152 "
       stroke="#000000"
       stroke-width="8"
       stroke-opacity="1"
       stroke-miterlimit="10"
       id="path4553"
       style="fill:#ffffff;fill-opacity:1" />
  </g>
  <g
     clip-path="url(#c01541958b)"
     id="g4559"
     inkscape:export-xdpi="96"
     inkscape:export-ydpi="96">
    <path
       fill="#03a8e8"
       d="M 260.714844 178.550781 C 260.714844 178.730469 260.714844 178.925781 260.703125 179.105469 C 260.679688 182.796875 260.390625 186.429688 259.832031 189.984375 C 257.222656 207.144531 248.800781 222.375 236.636719 233.617188 L 236.625 233.617188 C 223.242188 245.996094 205.347656 253.566406 185.699219 253.566406 C 176.082031 253.566406 166.890625 251.761719 158.457031 248.449219 C 157.410156 248.054688 156.375 247.621094 155.347656 247.167969 C 141.078125 240.847656 129.164062 230.210938 121.234375 216.902344 C 117.253906 210.210938 114.269531 202.84375 112.511719 195.023438 C 111.320312 189.71875 110.695312 184.203125 110.695312 178.550781 C 110.695312 176.566406 110.769531 174.601562 110.9375 172.667969 C 112.199219 156.214844 118.785156 141.257812 128.964844 129.503906 C 132.882812 124.976562 137.335938 120.921875 142.222656 117.445312 L 142.234375 117.433594 C 143.558594 116.496094 144.917969 115.582031 146.3125 114.726562 C 154.835938 109.457031 164.484375 105.832031 174.820312 104.328125 C 178.371094 103.808594 182.003906 103.546875 185.699219 103.546875 C 194.507812 103.546875 202.976562 105.074219 210.824219 107.867188 C 223.507812 112.367188 234.601562 120.1875 243.097656 130.269531 C 254.097656 143.320312 260.714844 160.164062 260.714844 178.550781 "
       fill-opacity="1"
       fill-rule="nonzero"
       id="path4557" />
  </g>
  <path
     fill="#70c573"
     d="M 195.71875 237.253906 C 195.71875 237.253906 191.636719 231.558594 192.089844 221.792969 C 192.542969 212.023438 191.636719 210.398438 185.285156 208.363281 C 178.9375 206.328125 172.582031 202.664062 171.675781 197.78125 C 170.769531 192.894531 176.214844 181.503906 176.214844 181.503906 C 176.214844 181.503906 183.472656 176.621094 189.824219 177.433594 C 196.171875 178.246094 207.0625 178.246094 212.050781 182.726562 C 217.039062 187.199219 220.210938 197.375 222.480469 197.78125 C 224.75 198.1875 219.304688 215.6875 218.398438 218.535156 C 217.492188 221.382812 214.773438 232.78125 212.503906 237.253906 C 210.234375 241.730469 207.96875 245.800781 206.152344 245.800781 C 204.339844 245.800781 196.171875 246.617188 195.71875 237.253906 "
     fill-opacity="1"
     fill-rule="nonzero"
     id="path4561"
     inkscape:export-xdpi="96"
     inkscape:export-ydpi="96" />
  <path
     fill="#70c573"
     d="M 160.476562 236.324219 C 160.078125 238.246094 159.371094 243.363281 158.457031 248.449219 C 157.410156 248.054688 156.375 247.621094 155.347656 247.167969 C 141.078125 240.847656 129.164062 230.210938 121.234375 216.902344 C 117.253906 210.210938 114.269531 202.84375 112.511719 195.023438 C 115.277344 193.554688 118.746094 192.230469 122.148438 192.292969 C 129.609375 192.4375 130.550781 194.273438 136.902344 198.828125 C 143.242188 203.390625 148.214844 214.773438 150.898438 214.96875 C 153.578125 215.148438 161.164062 232.90625 160.476562 236.324219 "
     fill-opacity="1"
     fill-rule="nonzero"
     id="path4563"
     inkscape:export-xdpi="96"
     inkscape:export-ydpi="96" />
  <g
     clip-path="url(#6a0061ce29)"
     id="g4567"
     inkscape:export-xdpi="96"
     inkscape:export-ydpi="96">
    <path
       fill="#70c573"
       d="M 260.714844 178.550781 C 260.714844 178.730469 260.714844 178.925781 260.703125 179.105469 C 260.679688 182.796875 260.390625 186.429688 259.832031 189.984375 C 256.46875 185.039062 252.832031 177.613281 250.980469 176.3125 C 248.125 174.300781 237.671875 173.101562 241.472656 178.320312 C 245.277344 183.558594 246.886719 183.558594 246.886719 183.558594 C 246.886719 183.558594 239.570312 198.285156 234.347656 196.855469 C 229.117188 195.4375 218.660156 176.3125 218.660156 176.3125 C 212.484375 171.453125 224.363281 167.867188 224.363281 167.867188 C 224.363281 167.867188 228.164062 164.542969 222.460938 160.742188 C 216.757812 156.9375 212.484375 165.015625 208.683594 164.0625 C 204.882812 163.113281 203.925781 166.914062 202.738281 170.714844 C 201.546875 174.515625 198.078125 176.792969 197.273438 170.714844 C 196.457031 164.640625 187.765625 168.347656 184.917969 168.347656 C 182.0625 168.347656 176.359375 178.320312 171.125 178.320312 C 165.902344 178.320312 165.902344 171.199219 166.855469 167.867188 C 167.804688 164.542969 175.878906 161.210938 183.484375 160.742188 C 191.089844 160.261719 183.964844 153.605469 186.335938 152.316406 C 188.71875 151.019531 195.84375 153.136719 202.738281 155.988281 C 209.621094 158.839844 216.757812 152.183594 222.941406 152.316406 C 229.117188 152.449219 209.632812 147.433594 215.804688 142.679688 C 221.992188 137.925781 208.683594 133.644531 209.152344 128.417969 C 209.632812 123.1875 205.347656 117.011719 205.347656 111.308594 C 205.347656 109.492188 207.371094 108.308594 210.824219 107.867188 C 223.507812 112.367188 234.601562 120.1875 243.097656 130.269531 C 254.097656 143.320312 260.714844 160.164062 260.714844 178.550781 "
       fill-opacity="1"
       fill-rule="nonzero"
       id="path4565" />
  </g>
  <path
     fill="#70c573"
     d="M 154.527344 153.195312 C 154.527344 153.195312 157.28125 156.449219 159.40625 153.195312 C 161.53125 149.9375 161.832031 147.339844 160.503906 147.109375 C 159.171875 146.867188 151.261719 151.839844 154.527344 153.195312 "
     fill-opacity="1"
     fill-rule="nonzero"
     id="path4569"
     inkscape:export-xdpi="96"
     inkscape:export-ydpi="96" />
  <path
     fill="#70c573"
     d="M 138.476562 153.195312 C 138.476562 153.195312 144.140625 151.746094 145.398438 148.914062 C 146.660156 146.078125 153.898438 147.339844 155.785156 144.507812 C 157.675781 141.671875 162.5625 140.664062 163.742188 138.019531 C 164.914062 135.378906 166.191406 131.289062 161.304688 130.972656 C 156.417969 130.65625 151.597656 128.457031 151.648438 130.972656 C 151.695312 133.492188 150.4375 132.859375 146.03125 134.433594 C 141.625 136.007812 136.902344 133.738281 136.902344 138.019531 C 136.902344 142.304688 138.164062 147.097656 138.164062 147.097656 C 138.164062 147.097656 135.644531 150.550781 138.476562 153.195312 "
     fill-opacity="1"
     fill-rule="nonzero"
     id="path4571"
     inkscape:export-xdpi="96"
     inkscape:export-ydpi="96" />
  <path
     fill="#70c573"
     d="M 174.820312 104.328125 C 174.820312 104.328125 166.386719 115.59375 164.820312 115.894531 C 163.246094 116.191406 158.417969 119.5 157.527344 122.8125 C 156.628906 126.125 150.308594 128.226562 145.496094 126.125 C 140.683594 124.015625 139.574219 121.695312 142.222656 117.445312 L 142.234375 117.433594 C 143.558594 116.496094 144.917969 115.582031 146.3125 114.726562 C 154.835938 109.457031 164.484375 105.832031 174.820312 104.328125 "
     fill-opacity="1"
     fill-rule="nonzero"
     id="path4573"
     inkscape:export-xdpi="96"
     inkscape:export-ydpi="96" />
  <g
     clip-path="url(#9f66fb71c4)"
     id="g4577"
     inkscape:export-xdpi="96"
     inkscape:export-ydpi="96">
    <path
       fill="#70c573"
       d="M 127.542969 148.585938 C 126.746094 150.996094 126.941406 153.800781 124.339844 154.640625 C 121.726562 155.484375 122.730469 158.609375 120.925781 162.617188 C 119.300781 166.230469 112.332031 171.621094 110.9375 172.667969 C 112.199219 156.214844 118.785156 141.257812 128.964844 129.503906 C 130.019531 132.714844 129.609375 138.019531 130.550781 139.753906 C 131.957031 142.363281 128.347656 146.179688 127.542969 148.585938 "
       fill-opacity="1"
       fill-rule="nonzero"
       id="path4575" />
  </g>
  <g
     clip-path="url(#edcd882150)"
     id="g4581"
     inkscape:export-xdpi="96"
     inkscape:export-ydpi="96">
    <path
       stroke-linecap="butt"
       transform="matrix(0.295741, 0, 0, 0.295741, 110.70432, 103.586052)"
       fill="none"
       stroke-linejoin="miter"
       d="M 503.193844 253.493949 C 503.193844 257.588533 503.088178 261.669908 502.890053 265.738074 C 502.691928 269.81945 502.388136 273.887616 501.991886 277.955783 C 501.595636 282.02395 501.093719 286.0657 500.486136 290.10745 C 499.891761 294.1492 499.191719 298.164533 498.399219 302.179867 C 497.593511 306.181992 496.708553 310.1577 495.717928 314.1202 C 494.714094 318.0827 493.631011 322.018784 492.442261 325.92845 C 491.253511 329.838117 489.972302 333.708159 488.598636 337.551784 C 487.224969 341.395409 485.758844 345.212617 484.187052 348.976993 C 482.628469 352.754576 480.977427 356.479326 479.233927 360.177659 C 477.477219 363.862784 475.64126 367.508285 473.726052 371.11416 C 471.797635 374.720035 469.77676 378.259868 467.676635 381.773285 C 465.57651 385.273493 463.397135 388.720868 461.125302 392.11541 C 458.853469 395.509952 456.502385 398.85166 454.072052 402.127327 C 451.641718 405.402994 449.132135 408.625827 446.530093 411.782619 C 443.94126 414.93941 441.273177 418.03016 438.539052 421.054869 C 435.791718 424.079577 432.978343 427.038244 430.085718 429.917661 C 427.193093 432.810286 424.234426 435.623661 421.209718 438.370994 C 418.185009 441.105119 415.094259 443.773203 411.937468 446.362036 C 408.780676 448.950869 405.557843 451.473661 402.282176 453.903994 C 398.993301 456.334328 395.664801 458.685411 392.270259 460.957245 C 388.862509 463.21587 385.415134 465.408453 381.914926 467.508578 C 378.414717 469.608703 374.861675 471.61637 371.2558 473.544786 C 367.649925 475.459995 364.004425 477.295953 360.306092 479.039453 C 356.620967 480.796162 352.883008 482.447203 349.118633 484.005787 C 345.34105 485.56437 341.523841 487.043703 337.680216 488.41737 C 333.836591 489.791037 329.953341 491.072245 326.043675 492.260995 C 322.147216 493.436537 318.211133 494.532828 314.248633 495.523453 C 310.286133 496.514078 306.297216 497.412245 302.295091 498.204745 C 298.279757 498.997245 294.264424 499.697287 290.222674 500.30487 C 286.180924 500.899245 282.125965 501.401162 278.057799 501.797412 C 273.989632 502.193662 269.921465 502.497454 265.84009 502.695579 C 261.758715 502.893704 257.67734 502.99937 253.595965 502.99937 C 249.51459 502.99937 245.433215 502.893704 241.35184 502.695579 C 237.270465 502.497454 233.202298 502.193662 229.134131 501.797412 C 225.065964 501.401162 221.011006 500.899245 216.969256 500.30487 C 212.927506 499.697287 208.912173 498.997245 204.896839 498.204745 C 200.894714 497.412245 196.905797 496.514078 192.943297 495.523453 C 188.980797 494.532828 185.044714 493.436537 181.148255 492.260995 C 177.238589 491.072245 173.355339 489.791037 169.511714 488.41737 C 165.668088 487.043703 161.85088 485.56437 158.073297 484.005787 C 154.308922 482.447203 150.570963 480.796162 146.885838 479.039453 C 143.187505 477.295953 139.542005 475.459995 135.93613 473.544786 C 132.330255 471.61637 128.777213 469.608703 125.277004 467.508578 C 121.776796 465.408453 118.329421 463.21587 114.921671 460.957245 C 111.527129 458.685411 108.198629 456.334328 104.909754 453.903994 C 101.634087 451.473661 98.411254 448.950869 95.254462 446.362036 C 92.09767 443.773203 89.00692 441.105119 85.982212 438.370994 C 82.957504 435.623661 79.998837 432.810286 77.106212 429.917661 C 74.213587 427.038244 71.400212 424.079577 68.652878 421.054869 C 65.918753 418.03016 63.25067 414.93941 60.661837 411.782619 C 58.059795 408.625827 55.550212 405.402994 53.119878 402.127327 C 50.689545 398.85166 48.338461 395.509952 46.066628 392.11541 C 43.794795 388.720868 41.61542 385.273493 39.515295 381.773285 C 37.41517 378.259868 35.394295 374.720035 33.465878 371.11416 C 31.550669 367.508285 29.714711 363.862784 27.958003 360.177659 C 26.214503 356.479326 24.563461 352.754576 23.004878 348.976993 C 21.433086 345.212617 19.966961 341.395409 18.593294 337.551784 C 17.219628 333.708159 15.938419 329.838117 14.749669 325.92845 C 13.560919 322.018784 12.477836 318.0827 11.474002 314.1202 C 10.483377 310.1577 9.598419 306.181992 8.792711 302.179867 C 8.000211 298.164533 7.300169 294.1492 6.705794 290.10745 C 6.098211 286.0657 5.596294 282.02395 5.200044 277.955783 C 4.803794 273.887616 4.500002 269.81945 4.301877 265.738074 C 4.103752 261.669908 3.998086 257.588533 3.998086 253.493949 C 3.998086 249.412574 4.103752 245.331199 4.301877 241.263032 C 4.500002 237.181657 4.803794 233.113491 5.200044 229.045324 C 5.596294 224.977157 6.098211 220.935407 6.705794 216.893657 C 7.300169 212.851907 8.000211 208.823365 8.792711 204.82124 C 9.598419 200.819115 10.483377 196.843407 11.474002 192.880907 C 12.477836 188.918406 13.560919 184.982323 14.749669 181.072656 C 15.938419 177.16299 17.219628 173.292948 18.593294 169.449323 C 19.966961 165.605698 21.433086 161.788489 23.004878 158.024114 C 24.563461 154.246531 26.214503 150.521781 27.958003 146.823447 C 29.714711 143.138322 31.550669 139.492822 33.465878 135.886947 C 35.394295 132.281072 37.41517 128.72803 39.515295 125.227822 C 41.61542 121.727614 43.794795 118.280239 46.066628 114.885697 C 48.338461 111.491155 50.689545 108.149447 53.119878 104.87378 C 55.550212 101.598113 58.059795 98.37528 60.661837 95.218488 C 63.25067 92.061696 65.918753 88.970946 68.652878 85.946238 C 71.400212 82.92153 74.213587 79.962863 77.106212 77.083446 C 79.998837 74.190821 82.957504 71.377446 85.982212 68.630113 C 89.00692 65.895988 92.09767 63.227904 95.254462 60.639071 C 98.411254 58.037029 101.634087 55.527446 104.909754 53.097112 C 108.198629 50.666779 111.527129 48.315696 114.921671 46.043862 C 118.329421 43.785237 121.776796 41.592654 125.277004 39.492529 C 128.777213 37.392404 132.330255 35.384737 135.93613 33.45632 C 139.542005 31.541112 143.187505 29.705154 146.885838 27.948445 C 150.570963 26.204945 154.308922 24.553904 158.073297 22.99532 C 161.85088 21.423529 165.668088 19.957404 169.511714 18.583737 C 173.355339 17.21007 177.238589 15.928862 181.148255 14.740112 C 185.044714 13.56457 188.980797 12.468278 192.943297 11.477653 C 196.905797 10.487028 200.894714 9.588862 204.896839 8.796362 C 208.912173 8.003862 212.927506 7.30382 216.969256 6.696237 C 221.011006 6.101862 225.065964 5.599945 229.134131 5.203695 C 233.202298 4.807445 237.270465 4.503653 241.35184 4.305528 C 245.433215 4.094195 249.51459 4.001737 253.595965 4.001737 C 257.67734 4.001737 261.758715 4.094195 265.84009 4.305528 C 269.921465 4.503653 273.989632 4.807445 278.057799 5.203695 C 282.125965 5.599945 286.180924 6.101862 290.222674 6.696237 C 294.264424 7.30382 298.279757 8.003862 302.295091 8.796362 C 306.297216 9.588862 310.286133 10.487028 314.248633 11.477653 C 318.211133 12.468278 322.147216 13.56457 326.043675 14.740112 C 329.953341 15.928862 333.836591 17.21007 337.680216 18.583737 C 341.523841 19.957404 345.34105 21.423529 349.118633 22.99532 C 352.883008 24.553904 356.620967 26.204945 360.306092 27.948445 C 364.004425 29.705154 367.649925 31.541112 371.2558 33.45632 C 374.861675 35.384737 378.414717 37.392404 381.914926 39.492529 C 385.415134 41.592654 388.862509 43.785237 392.270259 46.043862 C 395.664801 48.315696 398.993301 50.666779 402.282176 53.097112 C 405.557843 55.527446 408.780676 58.037029 411.937468 60.639071 C 415.094259 63.227904 418.185009 65.895988 421.209718 68.630113 C 424.247635 71.377446 427.193093 74.190821 430.085718 77.083446 C 432.978343 79.962863 435.791718 82.92153 438.539052 85.946238 C 441.273177 88.970946 443.94126 92.061696 446.530093 95.218488 C 449.132135 98.37528 451.641718 101.598113 454.072052 104.87378 C 456.502385 108.149447 458.853469 111.491155 461.125302 114.885697 C 463.397135 118.280239 465.57651 121.727614 467.676635 125.227822 C 469.77676 128.72803 471.797635 132.281072 473.726052 135.886947 C 475.64126 139.492822 477.477219 143.138322 479.233927 146.823447 C 480.977427 150.521781 482.628469 154.246531 484.187052 158.024114 C 485.758844 161.788489 487.224969 165.605698 488.598636 169.449323 C 489.972302 173.292948 491.253511 177.16299 492.442261 181.072656 C 493.631011 184.982323 494.714094 188.918406 495.717928 192.880907 C 496.708553 196.843407 497.593511 200.819115 498.399219 204.82124 C 499.191719 208.823365 499.891761 212.851907 500.486136 216.893657 C 501.093719 220.935407 501.595636 224.977157 501.991886 229.045324 C 502.388136 233.113491 502.691928 237.181657 502.890053 241.263032 C 503.088178 245.331199 503.193844 249.412574 503.193844 253.493949 Z M 503.193844 253.493949 "
       stroke="#000000"
       stroke-width="8"
       stroke-opacity="1"
       stroke-miterlimit="10"
       id="path4579" />
  </g>
  <path
     fill="#ffde17"
     d="M 185.53125 185.066406 L 192.449219 199.128906 L 207.914062 201.382812 L 196.722656 212.328125 L 199.363281 227.785156 L 185.53125 220.488281 L 171.699219 227.785156 L 174.339844 212.328125 L 163.148438 201.382812 L 178.617188 199.128906 Z M 185.53125 185.066406 "
     fill-opacity="1"
     fill-rule="nonzero"
     id="path4583"
     inkscape:export-xdpi="96"
     inkscape:export-ydpi="96" />
  <g
     clip-path="url(#5b0f271b9b)"
     id="g4587"
     inkscape:export-xdpi="96"
     inkscape:export-ydpi="96">
    <path
       fill="#ffde17"
       d="M 232.835938 203.734375 L 236.558594 215.285156 L 248.15625 218.757812 L 238.359375 225.882812 L 238.652344 238.019531 L 228.871094 230.871094 L 217.457031 234.902344 L 221.210938 223.359375 L 213.863281 213.714844 L 225.964844 213.726562 Z M 232.835938 203.734375 "
       fill-opacity="1"
       fill-rule="nonzero"
       id="path4585" />
  </g>
  <g
     clip-path="url(#293188e52b)"
     id="g4591"
     inkscape:export-xdpi="96"
     inkscape:export-ydpi="96">
    <path
       fill="#ffde17"
       d="M 138.226562 203.734375 L 134.503906 215.285156 L 122.90625 218.757812 L 132.707031 225.882812 L 132.410156 238.019531 L 142.191406 230.871094 L 153.605469 234.902344 L 149.851562 223.359375 L 157.199219 213.714844 L 145.097656 213.726562 Z M 138.226562 203.734375 "
       fill-opacity="1"
       fill-rule="nonzero"
       id="path4589" />
  </g>
  <g
     clip-path="url(#11980ee697)"
     id="g4595"
     inkscape:export-xdpi="96"
     inkscape:export-ydpi="96">
    <path
       fill="#000000"
       d="M 201.085938 229.761719 L 185.703125 221.675781 L 170.320312 229.761719 L 173.257812 212.636719 L 160.8125 200.5 L 178.007812 198 L 185.703125 182.417969 L 193.398438 198 L 210.59375 200.5 L 198.148438 212.636719 Z M 163.667969 201.4375 L 174.679688 212.167969 L 172.082031 227.332031 L 185.703125 220.171875 L 199.3125 227.332031 L 196.714844 212.167969 L 207.734375 201.4375 L 192.511719 199.226562 L 185.703125 185.425781 L 178.890625 199.214844 Z M 163.667969 201.4375 "
       fill-opacity="1"
       fill-rule="nonzero"
       id="path4593" />
  </g>
  <g
     fill="#000000"
     fill-opacity="1"
     id="g4603"
     inkscape:export-xdpi="96"
     inkscape:export-ydpi="96">
    <g
       transform="translate(101.41329, 184.22326)"
       id="g4601">
      <g
         id="g4599">
        <path
           d="M 10.828125 -1.4375 C 12.554688 -1.695312 14.164062 -2.378906 15.65625 -3.484375 C 17.144531 -4.585938 18.28125 -6.050781 19.0625 -7.875 C 19.851562 -9.707031 20.054688 -11.863281 19.671875 -14.34375 C 19.554688 -15.09375 19.316406 -15.765625 18.953125 -16.359375 C 18.335938 -17.253906 17.625 -17.753906 16.8125 -17.859375 C 16.007812 -17.960938 15.238281 -17.957031 14.5 -17.84375 L 13.71875 -17.71875 L 12.40625 -17.40625 C 11.457031 -17.164062 10.726562 -16.945312 10.21875 -16.75 C 9.632812 -16.457031 9.175781 -15.988281 8.84375 -15.34375 C 8.507812 -14.707031 8.394531 -14.039062 8.5 -13.34375 C 8.625 -12.550781 9.097656 -11.878906 9.921875 -11.328125 C 10.054688 -11.242188 10.203125 -11.097656 10.359375 -10.890625 C 10.515625 -10.691406 10.609375 -10.488281 10.640625 -10.28125 C 10.671875 -10.09375 10.644531 -9.945312 10.5625 -9.84375 C 10.476562 -9.738281 10.328125 -9.648438 10.109375 -9.578125 C 9.679688 -9.503906 9.144531 -9.8125 8.5 -10.5 C 7.863281 -11.28125 7.429688 -12.390625 7.203125 -13.828125 C 7.046875 -14.835938 6.992188 -15.894531 7.046875 -17 C 7.109375 -18.113281 7.359375 -19.082031 7.796875 -19.90625 C 8.242188 -20.726562 8.945312 -21.21875 9.90625 -21.375 C 10.625 -21.488281 11.515625 -21.296875 12.578125 -20.796875 C 12.972656 -20.628906 13.382812 -20.582031 13.8125 -20.65625 C 14.53125 -20.757812 15.148438 -21.117188 15.671875 -21.734375 C 16.359375 -22.566406 16.601562 -23.601562 16.40625 -24.84375 C 16.101562 -26.8125 14.945312 -28.378906 12.9375 -29.546875 C 10.925781 -30.710938 8.769531 -31.113281 6.46875 -30.75 C 4.925781 -30.507812 3.460938 -29.859375 2.078125 -28.796875 C 0.691406 -27.734375 -0.410156 -26.164062 -1.234375 -24.09375 C -2.523438 -20.769531 -2.898438 -17.378906 -2.359375 -13.921875 C -1.984375 -11.503906 -1.222656 -9.328125 -0.078125 -7.390625 C 1.054688 -5.460938 2.410156 -3.953125 3.984375 -2.859375 C 4.992188 -2.179688 6.085938 -1.726562 7.265625 -1.5 C 8.441406 -1.269531 9.628906 -1.25 10.828125 -1.4375 Z M 10.828125 -1.4375 "
           id="path4597" />
      </g>
    </g>
  </g>
  <g
     fill="#000000"
     fill-opacity="1"
     id="g4611"
     inkscape:export-xdpi="96"
     inkscape:export-ydpi="96">
    <g
       transform="translate(122.772723, 180.90328)"
       id="g4609">
      <g
         id="g4607">
        <path
           d="M 7.875 -0.078125 C 8.90625 -0.191406 10.117188 -0.347656 11.515625 -0.546875 C 12.523438 -0.691406 13.644531 -0.835938 14.875 -0.984375 C 16.101562 -1.140625 17.128906 -1.632812 17.953125 -2.46875 C 18.773438 -3.300781 19.113281 -4.382812 18.96875 -5.71875 C 18.8125 -7.050781 18.335938 -8.125 17.546875 -8.9375 C 16.765625 -9.75 15.835938 -10.171875 14.765625 -10.203125 C 12.566406 -9.953125 10.835938 -9.769531 9.578125 -9.65625 C 9.410156 -9.664062 9.300781 -9.738281 9.25 -9.875 C 9.195312 -10.007812 9.15625 -10.195312 9.125 -10.4375 C 9.101562 -10.675781 9.109375 -10.847656 9.140625 -10.953125 C 9.179688 -11.054688 9.304688 -11.132812 9.515625 -11.1875 C 9.734375 -11.238281 10.09375 -11.300781 10.59375 -11.375 L 12.25 -11.640625 C 12.5625 -11.679688 13 -11.734375 13.5625 -11.796875 C 14.132812 -11.859375 14.695312 -12.003906 15.25 -12.234375 C 16.519531 -12.765625 17.023438 -14.195312 16.765625 -16.53125 C 16.648438 -17.550781 16.375 -18.28125 15.9375 -18.71875 C 15.195312 -19.425781 14.09375 -19.695312 12.625 -19.53125 C 11.03125 -19.351562 9.976562 -19.253906 9.46875 -19.234375 C 8.957031 -19.210938 8.644531 -19.253906 8.53125 -19.359375 C 8.414062 -19.472656 8.347656 -19.644531 8.328125 -19.875 L 8.3125 -20.015625 L 8.203125 -20.609375 C 8.191406 -20.773438 8.289062 -20.894531 8.5 -20.96875 C 8.976562 -21.019531 9.6875 -21.132812 10.625 -21.3125 C 11.832031 -21.539062 12.910156 -21.710938 13.859375 -21.828125 C 14.941406 -21.941406 15.71875 -22.3125 16.1875 -22.9375 C 16.914062 -23.894531 17.203125 -25.054688 17.046875 -26.421875 C 16.898438 -27.703125 16.507812 -28.675781 15.875 -29.34375 C 14.664062 -30.53125 12.898438 -30.992188 10.578125 -30.734375 L 1.890625 -29.75 C -0.398438 -29.34375 -1.570312 -28.25 -1.625 -26.46875 C -1.625 -26.070312 -1.507812 -24.847656 -1.28125 -22.796875 C -1.15625 -21.691406 -1.019531 -20.554688 -0.875 -19.390625 C -0.738281 -18.234375 -0.617188 -17.257812 -0.515625 -16.46875 C -0.421875 -15.675781 -0.359375 -15.28125 -0.328125 -15.28125 L 0.453125 -7.90625 C 0.734375 -5.414062 1.078125 -3.570312 1.484375 -2.375 C 1.890625 -1.1875 2.570312 -0.453125 3.53125 -0.171875 C 4.5 0.109375 5.945312 0.140625 7.875 -0.078125 Z M 6.296875 -31.359375 C 6.984375 -31.429688 7.535156 -31.628906 7.953125 -31.953125 C 8.378906 -32.285156 8.832031 -32.859375 9.3125 -33.671875 C 10.71875 -36.109375 11.4375 -37.710938 11.46875 -38.484375 L 11.46875 -39.15625 C 11.375 -40.070312 10.984375 -40.789062 10.296875 -41.3125 C 9.609375 -41.832031 8.859375 -42.046875 8.046875 -41.953125 C 7.585938 -41.910156 7.128906 -41.75 6.671875 -41.46875 C 5.335938 -40.632812 4.085938 -38.984375 2.921875 -36.515625 C 2.597656 -35.753906 2.472656 -35.035156 2.546875 -34.359375 C 2.648438 -33.453125 3.054688 -32.695312 3.765625 -32.09375 C 4.472656 -31.488281 5.316406 -31.242188 6.296875 -31.359375 Z M 6.296875 -31.359375 "
           id="path4605" />
      </g>
    </g>
  </g>
  <g
     fill="#000000"
     fill-opacity="1"
     id="g4619"
     inkscape:export-xdpi="96"
     inkscape:export-ydpi="96">
    <g
       transform="translate(142.72656, 178.631659)"
       id="g4617">
      <g
         id="g4615">
        <path
           d="M 10.90625 0.015625 C 8.925781 0.148438 7.070312 -0.394531 5.34375 -1.625 C 3.625 -2.863281 2.191406 -4.578125 1.046875 -6.765625 C -0.0859375 -8.960938 -0.753906 -11.441406 -0.953125 -14.203125 C -1.140625 -16.941406 -0.820312 -19.484375 0 -21.828125 C 0.832031 -24.171875 2.019531 -26.070312 3.5625 -27.53125 C 5.101562 -29 6.863281 -29.800781 8.84375 -29.9375 C 10.832031 -30.070312 12.691406 -29.519531 14.421875 -28.28125 C 16.148438 -27.050781 17.578125 -25.328125 18.703125 -23.109375 C 19.828125 -20.898438 20.484375 -18.425781 20.671875 -15.6875 C 20.867188 -12.925781 20.5625 -10.382812 19.75 -8.0625 C 18.9375 -5.738281 17.753906 -3.84375 16.203125 -2.375 C 14.660156 -0.914062 12.894531 -0.117188 10.90625 0.015625 Z M 10.171875 -11.828125 C 10.535156 -11.859375 10.816406 -12.164062 11.015625 -12.75 C 11.222656 -13.34375 11.296875 -14.050781 11.234375 -14.875 C 11.179688 -15.675781 11.015625 -16.359375 10.734375 -16.921875 C 10.453125 -17.484375 10.128906 -17.75 9.765625 -17.71875 C 9.421875 -17.695312 9.144531 -17.390625 8.9375 -16.796875 C 8.726562 -16.203125 8.648438 -15.503906 8.703125 -14.703125 C 8.765625 -13.878906 8.9375 -13.1875 9.21875 -12.625 C 9.507812 -12.070312 9.828125 -11.804688 10.171875 -11.828125 Z M 10.171875 -11.828125 "
           id="path4613" />
      </g>
    </g>
  </g>
  <g
     fill="#000000"
     fill-opacity="1"
     id="g4627"
     inkscape:export-xdpi="96"
     inkscape:export-ydpi="96">
    <g
       transform="translate(164.625068, 177.110161)"
       id="g4625">
      <g
         id="g4623">
        <path
           d="M 5.765625 0.375 C 6.984375 0.351562 8.050781 -0.148438 8.96875 -1.140625 C 9.894531 -2.128906 10.4375 -3.289062 10.59375 -4.625 C 10.757812 -6.3125 10.835938 -7.382812 10.828125 -7.84375 C 10.816406 -8.175781 10.828125 -8.359375 10.859375 -8.390625 C 10.898438 -8.429688 11.148438 -8.457031 11.609375 -8.46875 C 14.078125 -8.8125 16.066406 -9.546875 17.578125 -10.671875 C 19.097656 -11.804688 20.191406 -13.164062 20.859375 -14.75 C 21.523438 -16.34375 21.835938 -17.941406 21.796875 -19.546875 C 21.742188 -21.972656 20.984375 -24.078125 19.515625 -25.859375 C 18.429688 -27.066406 17.421875 -27.941406 16.484375 -28.484375 C 15.546875 -29.035156 14.429688 -29.367188 13.140625 -29.484375 C 11.859375 -29.597656 10.078125 -29.628906 7.796875 -29.578125 L 4.625 -29.5 C 3.820312 -29.476562 3 -29.082031 2.15625 -28.3125 C 1.3125 -27.539062 0.84375 -26.5625 0.75 -25.375 C 0.695312 -24.332031 0.695312 -22.753906 0.75 -20.640625 L 0.84375 -16.75 C 0.9375 -14.175781 1.046875 -10.179688 1.171875 -4.765625 L 1.171875 -4.46875 C 1.234375 -2.164062 2.3125 -0.628906 4.40625 0.140625 C 4.875 0.304688 5.328125 0.382812 5.765625 0.375 Z M 11.03125 -16.359375 C 10.976562 -16.359375 10.882812 -16.421875 10.75 -16.546875 L 10.6875 -16.578125 C 10.65625 -16.628906 10.640625 -16.753906 10.640625 -16.953125 L 10.625 -19.71875 C 10.632812 -20.125 10.75 -20.328125 10.96875 -20.328125 C 11.257812 -20.335938 11.566406 -20.117188 11.890625 -19.671875 C 12.222656 -19.234375 12.390625 -18.84375 12.390625 -18.5 C 12.398438 -18.144531 12.316406 -17.804688 12.140625 -17.484375 C 11.972656 -17.171875 11.773438 -16.90625 11.546875 -16.6875 C 11.316406 -16.476562 11.144531 -16.367188 11.03125 -16.359375 Z M 11.03125 -16.359375 "
           id="path4621" />
      </g>
    </g>
  </g>
  <g
     fill="#000000"
     fill-opacity="1"
     id="g4635"
     inkscape:export-xdpi="96"
     inkscape:export-ydpi="96">
    <g
       transform="translate(186.715523, 176.576458)"
       id="g4633">
      <g
         id="g4631">
        <path
           d="M 10.875 1 C 8.882812 0.957031 7.082031 0.242188 5.46875 -1.140625 C 3.851562 -2.523438 2.578125 -4.363281 1.640625 -6.65625 C 0.710938 -8.945312 0.273438 -11.472656 0.328125 -14.234375 C 0.390625 -16.984375 0.9375 -19.488281 1.96875 -21.75 C 3.007812 -24.007812 4.363281 -25.796875 6.03125 -27.109375 C 7.695312 -28.421875 9.523438 -29.054688 11.515625 -29.015625 C 13.503906 -28.972656 15.304688 -28.257812 16.921875 -26.875 C 18.535156 -25.488281 19.800781 -23.644531 20.71875 -21.34375 C 21.632812 -19.039062 22.0625 -16.515625 22 -13.765625 C 21.945312 -11.003906 21.410156 -8.5 20.390625 -6.25 C 19.367188 -4 18.023438 -2.21875 16.359375 -0.90625 C 14.691406 0.40625 12.863281 1.039062 10.875 1 Z M 11.203125 -10.875 C 11.566406 -10.863281 11.875 -11.140625 12.125 -11.703125 C 12.382812 -12.273438 12.519531 -12.972656 12.53125 -13.796875 C 12.550781 -14.597656 12.445312 -15.289062 12.21875 -15.875 C 11.988281 -16.46875 11.691406 -16.769531 11.328125 -16.78125 C 10.984375 -16.789062 10.675781 -16.503906 10.40625 -15.921875 C 10.144531 -15.347656 10.003906 -14.660156 9.984375 -13.859375 C 9.972656 -13.035156 10.085938 -12.332031 10.328125 -11.75 C 10.566406 -11.175781 10.859375 -10.882812 11.203125 -10.875 Z M 11.203125 -10.875 "
           id="path4629" />
      </g>
    </g>
  </g>
  <g
     fill="#000000"
     fill-opacity="1"
     id="g4643"
     inkscape:export-xdpi="96"
     inkscape:export-ydpi="96">
    <g
       transform="translate(208.647347, 177.016072)"
       id="g4641">
      <g
         id="g4639">
        <path
           d="M 11.578125 1.109375 C 12.910156 1.203125 14.035156 0.84375 14.953125 0.03125 C 15.867188 -0.769531 16.414062 -1.9375 16.59375 -3.46875 L 17.03125 -9.3125 L 17.359375 -14.671875 C 17.472656 -16.453125 17.582031 -17.597656 17.6875 -18.109375 C 17.738281 -18.421875 17.847656 -18.625 18.015625 -18.71875 C 18.191406 -18.8125 18.332031 -18.859375 18.4375 -18.859375 C 19.132812 -18.804688 19.90625 -18.785156 20.75 -18.796875 C 21.59375 -18.816406 22.34375 -18.976562 23 -19.28125 C 24.5 -20.039062 25.320312 -21.484375 25.46875 -23.609375 C 25.550781 -24.847656 25.289062 -25.804688 24.6875 -26.484375 C 24.082031 -27.171875 23.382812 -27.648438 22.59375 -27.921875 C 21.8125 -28.203125 21.175781 -28.359375 20.6875 -28.390625 L 8.046875 -29.25 C 6.753906 -29.332031 5.5 -29.148438 4.28125 -28.703125 C 2.4375 -28.023438 1.445312 -26.703125 1.3125 -24.734375 C 1.25 -23.703125 1.523438 -22.773438 2.140625 -21.953125 C 2.765625 -21.128906 3.425781 -20.554688 4.125 -20.234375 C 4.476562 -20.066406 4.867188 -19.9375 5.296875 -19.84375 C 5.722656 -19.75 6.394531 -19.671875 7.3125 -19.609375 C 7.5625 -19.597656 7.8125 -19.546875 8.0625 -19.453125 C 8.3125 -19.359375 8.4375 -19.164062 8.4375 -18.875 C 8.382812 -15.570312 8.160156 -11.050781 7.765625 -5.3125 L 7.65625 -3.703125 C 7.65625 -3.679688 7.6875 -3.429688 7.75 -2.953125 C 7.820312 -2.484375 7.984375 -1.945312 8.234375 -1.34375 C 8.484375 -0.738281 8.867188 -0.195312 9.390625 0.28125 C 9.921875 0.769531 10.648438 1.046875 11.578125 1.109375 Z M 11.578125 1.109375 "
           id="path4637" />
      </g>
    </g>
  </g>
  <g
     fill="#000000"
     fill-opacity="1"
     id="g4651"
     inkscape:export-xdpi="96"
     inkscape:export-ydpi="96">
    <g
       transform="translate(231.970343, 178.6231)"
       id="g4649">
      <g
         id="g4647">
        <path
           d="M 7.6875 1.671875 C 8.71875 1.785156 9.941406 1.90625 11.359375 2.03125 C 12.367188 2.101562 13.488281 2.203125 14.71875 2.328125 C 15.945312 2.460938 17.054688 2.210938 18.046875 1.578125 C 19.035156 0.953125 19.609375 -0.0234375 19.765625 -1.359375 C 19.910156 -2.691406 19.6875 -3.84375 19.09375 -4.8125 C 18.507812 -5.78125 17.703125 -6.398438 16.671875 -6.671875 C 14.472656 -6.910156 12.742188 -7.113281 11.484375 -7.28125 C 11.316406 -7.332031 11.222656 -7.429688 11.203125 -7.578125 C 11.179688 -7.722656 11.1875 -7.914062 11.21875 -8.15625 C 11.25 -8.394531 11.289062 -8.5625 11.34375 -8.65625 C 11.40625 -8.75 11.546875 -8.796875 11.765625 -8.796875 C 11.984375 -8.796875 12.347656 -8.773438 12.859375 -8.734375 L 14.53125 -8.625 C 14.84375 -8.59375 15.28125 -8.546875 15.84375 -8.484375 C 16.414062 -8.421875 17 -8.441406 17.59375 -8.546875 C 18.945312 -8.773438 19.753906 -10.054688 20.015625 -12.390625 C 20.128906 -13.410156 20.023438 -14.1875 19.703125 -14.71875 C 19.128906 -15.570312 18.109375 -16.082031 16.640625 -16.25 C 15.046875 -16.425781 14 -16.5625 13.5 -16.65625 C 13 -16.75 12.703125 -16.859375 12.609375 -16.984375 C 12.523438 -17.117188 12.5 -17.300781 12.53125 -17.53125 L 12.546875 -17.671875 L 12.578125 -18.265625 C 12.597656 -18.429688 12.722656 -18.53125 12.953125 -18.5625 C 13.429688 -18.5 14.144531 -18.453125 15.09375 -18.421875 C 16.320312 -18.378906 17.40625 -18.304688 18.34375 -18.203125 C 19.4375 -18.078125 20.273438 -18.265625 20.859375 -18.765625 C 21.796875 -19.535156 22.34375 -20.601562 22.5 -21.96875 C 22.632812 -23.25 22.460938 -24.289062 21.984375 -25.09375 C 21.078125 -26.507812 19.460938 -27.347656 17.140625 -27.609375 L 8.453125 -28.59375 C 6.128906 -28.707031 4.742188 -27.894531 4.296875 -26.15625 C 4.210938 -25.78125 4.050781 -24.566406 3.8125 -22.515625 C 3.6875 -21.398438 3.5625 -20.265625 3.4375 -19.109375 C 3.320312 -17.953125 3.222656 -16.972656 3.140625 -16.171875 C 3.066406 -15.367188 3.046875 -14.96875 3.078125 -14.96875 L 2.203125 -7.59375 C 1.921875 -5.101562 1.847656 -3.234375 1.984375 -1.984375 C 2.117188 -0.742188 2.617188 0.117188 3.484375 0.609375 C 4.359375 1.097656 5.757812 1.453125 7.6875 1.671875 Z M 7.6875 1.671875 "
           id="path4645" />
      </g>
    </g>
  </g>
  <g
     fill="#000000"
     fill-opacity="1"
     id="g4659"
     inkscape:export-xdpi="96"
     inkscape:export-ydpi="96">
    <g
       transform="translate(251.936429, 180.847708)"
       id="g4657">
      <g
         id="g4655">
        <path
           d="M 9.46875 2.03125 C 12.15625 2.375 14.425781 2.21875 16.28125 1.5625 C 18.144531 0.90625 19.597656 -0.0859375 20.640625 -1.421875 C 21.691406 -2.765625 22.335938 -4.210938 22.578125 -5.765625 C 22.859375 -7.566406 22.617188 -9.347656 21.859375 -11.109375 C 20.929688 -13.222656 19.257812 -14.800781 16.84375 -15.84375 C 15.988281 -16.195312 15.210938 -16.648438 14.515625 -17.203125 C 13.816406 -17.753906 13.507812 -18.539062 13.59375 -19.5625 C 13.65625 -19.789062 13.785156 -19.988281 13.984375 -20.15625 C 14.179688 -20.320312 14.359375 -20.390625 14.515625 -20.359375 C 14.734375 -20.285156 14.875 -20.070312 14.9375 -19.71875 C 15.007812 -19.363281 15.234375 -18.8125 15.609375 -18.0625 C 16.128906 -17.101562 16.960938 -16.53125 18.109375 -16.34375 C 18.753906 -16.25 19.394531 -16.3125 20.03125 -16.53125 C 20.664062 -16.75 21.179688 -17.125 21.578125 -17.65625 C 21.984375 -18.195312 22.234375 -18.796875 22.328125 -19.453125 C 22.484375 -20.429688 22.34375 -21.4375 21.90625 -22.46875 C 21.46875 -23.507812 20.8125 -24.4375 19.9375 -25.25 C 18.570312 -26.394531 17 -27.101562 15.21875 -27.375 C 13.175781 -27.695312 11.128906 -27.390625 9.078125 -26.453125 C 7.023438 -25.515625 5.441406 -23.84375 4.328125 -21.4375 C 4.054688 -20.789062 3.878906 -20.179688 3.796875 -19.609375 C 3.328125 -16.609375 5 -13.757812 8.8125 -11.0625 C 9.21875 -10.71875 9.492188 -10.472656 9.640625 -10.328125 C 10.972656 -9.078125 11.585938 -8.117188 11.484375 -7.453125 C 11.453125 -7.210938 11.335938 -7.039062 11.140625 -6.9375 C 10.941406 -6.84375 10.71875 -6.816406 10.46875 -6.859375 C 10.101562 -6.910156 9.800781 -7.109375 9.5625 -7.453125 C 8.28125 -9.328125 6.992188 -10.367188 5.703125 -10.578125 C 4.722656 -10.722656 3.832031 -10.484375 3.03125 -9.859375 C 2.238281 -9.242188 1.75 -8.347656 1.5625 -7.171875 C 1.269531 -5.304688 1.90625 -3.265625 3.46875 -1.046875 C 4.414062 0.140625 5.953125 1.046875 8.078125 1.671875 C 8.859375 1.890625 9.320312 2.007812 9.46875 2.03125 Z M 9.46875 2.03125 "
           id="path4653" />
      </g>
    </g>
  </g>
  <g
     clip-path="url(#622083eef2)"
     id="g4667"
     inkscape:export-xdpi="96"
     inkscape:export-ydpi="96">
    <g
       clip-path="url(#2254c579d5)"
       id="g4665">
      <g
         clip-path="url(#043bc5b512)"
         id="g4663">
        <path
           fill="#000000"
           d="M 239.316406 238.625 L 228.84375 231.066406 L 216.679688 235.40625 L 220.632812 223.113281 L 212.746094 212.878906 L 225.660156 212.839844 L 232.953125 202.183594 L 236.984375 214.453125 L 249.375 218.089844 L 238.945312 225.71875 Z M 214.75 213.867188 L 221.730469 222.917969 L 218.230469 233.800781 L 229 229.960938 L 238.265625 236.652344 L 237.941406 225.222656 L 247.171875 218.480469 L 236.203125 215.261719 L 232.636719 204.394531 L 226.183594 213.828125 Z M 214.75 213.867188 "
           fill-opacity="1"
           fill-rule="nonzero"
           id="path4661" />
      </g>
    </g>
  </g>
  <g
     clip-path="url(#62b111437c)"
     id="g4675"
     inkscape:export-xdpi="96"
     inkscape:export-ydpi="96">
    <g
       clip-path="url(#4acfddfdf8)"
       id="g4673">
      <g
         clip-path="url(#f27001900a)"
         id="g4671">
        <path
           fill="#000000"
           d="M 132.105469 238.910156 L 142.574219 231.347656 L 154.742188 235.679688 L 150.785156 223.390625 L 158.667969 213.15625 L 145.753906 213.121094 L 138.457031 202.464844 L 134.429688 214.734375 L 122.039062 218.378906 L 132.46875 226.003906 Z M 156.660156 214.144531 L 149.6875 223.195312 L 153.191406 234.078125 L 142.417969 230.242188 L 133.15625 236.9375 L 133.476562 225.507812 L 124.242188 218.765625 L 135.210938 215.542969 L 138.773438 204.675781 L 145.230469 214.109375 Z M 156.660156 214.144531 "
           fill-opacity="1"
           fill-rule="nonzero"
           id="path4669" />
      </g>
    </g>
  </g>
  <g
     clip-path="url(#e2822a07da)"
     id="g4683"
     inkscape:export-xdpi="96"
     inkscape:export-ydpi="96">
    <g
       clip-path="url(#8cff9d04aa)"
       id="g4681">
      <g
         clip-path="url(#0f6acecb04)"
         id="g4679">
        <path
           fill="#000000"
           d="M 131.957031 238.375 L 142.601562 230.683594 L 154.972656 235.089844 L 150.945312 222.59375 L 158.960938 212.1875 L 145.832031 212.152344 L 138.414062 201.316406 L 134.316406 213.792969 L 121.722656 217.5 L 132.328125 225.25 Z M 156.925781 213.191406 L 149.832031 222.394531 L 153.394531 233.460938 L 142.441406 229.558594 L 133.023438 236.367188 L 133.347656 224.746094 L 123.957031 217.894531 L 135.109375 214.617188 L 138.734375 203.566406 L 145.300781 213.15625 Z M 156.925781 213.191406 "
           fill-opacity="1"
           fill-rule="nonzero"
           id="path4677" />
      </g>
    </g>
  </g>
  <g
     clip-path="url(#c9821bc345)"
     id="g4687"
     inkscape:export-xdpi="96"
     inkscape:export-ydpi="96">
    <path
       fill="#000000"
       d="M 201.390625 229.761719 L 185.703125 221.515625 L 170.011719 229.761719 L 173.007812 212.292969 L 160.3125 199.914062 L 177.851562 197.363281 L 185.703125 181.472656 L 193.550781 197.363281 L 211.089844 199.914062 L 198.394531 212.292969 Z M 163.226562 200.867188 L 174.460938 211.816406 L 171.808594 227.28125 L 185.703125 219.980469 L 199.585938 227.28125 L 196.933594 211.816406 L 208.175781 200.867188 L 192.648438 198.613281 L 185.703125 184.539062 L 178.753906 198.605469 Z M 163.226562 200.867188 "
       fill-opacity="1"
       fill-rule="nonzero"
       id="path4685" />
  </g>
  <g
     clip-path="url(#e49c87e390)"
     id="g4695"
     inkscape:export-xdpi="96"
     inkscape:export-ydpi="96">
    <g
       clip-path="url(#2f0d4f0d26)"
       id="g4693">
      <g
         clip-path="url(#e183187ff6)"
         id="g4691">
        <path
           fill="#000000"
           d="M 239.605469 238.867188 L 228.679688 230.984375 L 215.992188 235.507812 L 220.117188 222.6875 L 211.890625 212.015625 L 225.359375 211.972656 L 232.96875 200.855469 L 237.171875 213.652344 L 250.09375 217.449219 L 239.21875 225.40625 Z M 213.980469 213.042969 L 221.261719 222.484375 L 217.609375 233.835938 L 228.84375 229.828125 L 238.507812 236.808594 L 238.171875 224.890625 L 247.800781 217.855469 L 236.359375 214.496094 L 232.640625 203.164062 L 225.90625 213.003906 Z M 213.980469 213.042969 "
           fill-opacity="1"
           fill-rule="nonzero"
           id="path4689" />
      </g>
    </g>
  </g>
  <g
     clip-path="url(#df0393a001)"
     id="g4703"
     inkscape:export-xdpi="96"
     inkscape:export-ydpi="96">
    <g
       clip-path="url(#3b5c8a4d6d)"
       id="g4701">
      <g
         clip-path="url(#46252a8615)"
         id="g4699">
        <path
           fill="#000000"
           d="M 131.257812 239.882812 L 142.734375 231.59375 L 156.066406 236.34375 L 151.730469 222.875 L 160.367188 211.65625 L 146.214844 211.617188 L 138.21875 199.941406 L 133.804688 213.390625 L 120.226562 217.382812 L 131.660156 225.738281 Z M 158.171875 212.738281 L 150.527344 222.660156 L 154.367188 234.589844 L 142.558594 230.382812 L 132.410156 237.71875 L 132.761719 225.195312 L 122.640625 217.808594 L 134.660156 214.273438 L 138.566406 202.363281 L 145.640625 212.699219 Z M 158.171875 212.738281 "
           fill-opacity="1"
           fill-rule="nonzero"
           id="path4697" />
      </g>
    </g>
  </g>
  <g
     clip-path="url(#a03c107257)"
     id="g4707"
     inkscape:export-xdpi="96"
     inkscape:export-ydpi="96">
    <path
       fill="#000000"
       d="M 201.933594 230.59375 L 185.699219 222.0625 L 169.464844 230.59375 L 172.566406 212.523438 L 159.433594 199.714844 L 177.578125 197.078125 L 185.699219 180.632812 L 193.820312 197.078125 L 211.96875 199.714844 L 198.832031 212.523438 Z M 162.449219 200.703125 L 174.070312 212.03125 L 171.328125 228.03125 L 185.699219 220.476562 L 200.0625 228.03125 L 197.320312 212.03125 L 208.953125 200.703125 L 192.886719 198.371094 L 185.699219 183.808594 L 178.511719 198.359375 Z M 162.449219 200.703125 "
       fill-opacity="1"
       fill-rule="nonzero"
       id="path4705" />
  </g>
  <g
     clip-path="url(#90dc95be38)"
     id="g4715"
     inkscape:export-xdpi="96"
     inkscape:export-ydpi="96">
    <g
       clip-path="url(#4d7998e437)"
       id="g4713">
      <g
         clip-path="url(#a01532700d)"
         id="g4711">
        <path
           fill="#000000"
           d="M 240.160156 239.875 L 228.578125 231.515625 L 215.128906 236.3125 L 219.5 222.722656 L 210.777344 211.40625 L 225.058594 211.363281 L 233.125 199.578125 L 237.582031 213.144531 L 251.28125 217.167969 L 239.75 225.601562 Z M 212.996094 212.496094 L 220.710938 222.503906 L 216.84375 234.542969 L 228.753906 230.292969 L 239 237.691406 L 238.640625 225.054688 L 248.847656 217.597656 L 236.71875 214.039062 L 232.773438 202.023438 L 225.636719 212.453125 Z M 212.996094 212.496094 "
           fill-opacity="1"
           fill-rule="nonzero"
           id="path4709" />
      </g>
    </g>
  </g>
  <g
     fill="#000000"
     fill-opacity="1"
     id="g4723"
     inkscape:export-xdpi="96"
     inkscape:export-ydpi="96">
    <g
       transform="translate(146.574621, 112.07459)"
       id="g4721">
      <g
         id="g4719">
        <path
           d="M 2.109375 -0.828125 C 4.242188 -1.992188 5.476562 -3.484375 5.8125 -5.296875 C 6.113281 -6.867188 5.820312 -8.476562 4.9375 -10.125 C 4.4375 -11.039062 3.757812 -11.828125 2.90625 -12.484375 C 2.0625 -13.140625 1.078125 -13.507812 -0.046875 -13.59375 C -1.171875 -13.6875 -2.421875 -13.367188 -3.796875 -12.640625 C -4.273438 -12.367188 -4.597656 -11.921875 -4.765625 -11.296875 C -4.929688 -10.679688 -4.875 -10.078125 -4.59375 -9.484375 C -4.238281 -8.773438 -3.597656 -7.566406 -2.671875 -5.859375 L -1.640625 -4.015625 C -0.972656 -2.796875 -0.59375 -2.117188 -0.5 -1.984375 C -0.3125 -1.710938 -0.0703125 -1.460938 0.21875 -1.234375 C 0.519531 -1.003906 0.84375 -0.84375 1.1875 -0.75 C 1.53125 -0.65625 1.835938 -0.679688 2.109375 -0.828125 Z M 1.46875 -6.40625 C 1.425781 -6.382812 1.398438 -6.378906 1.390625 -6.390625 C 1.335938 -6.523438 0.890625 -7.363281 0.046875 -8.90625 C 0.046875 -8.9375 0.0546875 -8.957031 0.078125 -8.96875 C 0.148438 -9 0.265625 -9.003906 0.421875 -8.984375 C 0.578125 -8.960938 0.753906 -8.882812 0.953125 -8.75 C 1.160156 -8.625 1.351562 -8.398438 1.53125 -8.078125 C 1.695312 -7.765625 1.773438 -7.484375 1.765625 -7.234375 C 1.765625 -6.992188 1.722656 -6.800781 1.640625 -6.65625 C 1.566406 -6.519531 1.507812 -6.4375 1.46875 -6.40625 Z M 1.46875 -6.40625 "
           id="path4717" />
      </g>
    </g>
  </g>
  <g
     fill="#000000"
     fill-opacity="1"
     id="g4731"
     inkscape:export-xdpi="96"
     inkscape:export-ydpi="96">
    <g
       transform="translate(154.929292, 107.719815)"
       id="g4729">
      <g
         id="g4727">
        <path
           d="M 3.28125 -0.75 C 3.71875 -0.894531 4.222656 -1.082031 4.796875 -1.3125 C 5.203125 -1.46875 5.664062 -1.640625 6.1875 -1.828125 C 6.707031 -2.015625 7.101562 -2.328125 7.375 -2.765625 C 7.644531 -3.203125 7.679688 -3.695312 7.484375 -4.25 C 7.296875 -4.800781 6.992188 -5.210938 6.578125 -5.484375 C 6.160156 -5.753906 5.71875 -5.847656 5.25 -5.765625 C 4.332031 -5.453125 3.613281 -5.207031 3.09375 -5.03125 C 3.007812 -5.019531 2.953125 -5.039062 2.921875 -5.09375 C 2.890625 -5.144531 2.859375 -5.222656 2.828125 -5.328125 C 2.796875 -5.421875 2.78125 -5.492188 2.78125 -5.546875 C 2.78125 -5.597656 2.820312 -5.640625 2.90625 -5.671875 C 2.988281 -5.710938 3.140625 -5.773438 3.359375 -5.859375 L 4.046875 -6.140625 C 4.171875 -6.179688 4.347656 -6.242188 4.578125 -6.328125 C 4.816406 -6.410156 5.050781 -6.53125 5.28125 -6.6875 C 5.769531 -7.03125 5.84375 -7.695312 5.5 -8.6875 C 5.351562 -9.101562 5.171875 -9.378906 4.953125 -9.515625 C 4.554688 -9.742188 4.054688 -9.753906 3.453125 -9.546875 C 2.773438 -9.316406 2.328125 -9.171875 2.109375 -9.109375 C 1.898438 -9.054688 1.765625 -9.046875 1.703125 -9.078125 C 1.648438 -9.117188 1.601562 -9.1875 1.5625 -9.28125 L 1.546875 -9.359375 L 1.453125 -9.59375 C 1.421875 -9.664062 1.453125 -9.722656 1.546875 -9.765625 C 1.742188 -9.828125 2.03125 -9.941406 2.40625 -10.109375 C 2.914062 -10.335938 3.363281 -10.519531 3.75 -10.65625 C 4.207031 -10.8125 4.507812 -11.046875 4.65625 -11.359375 C 4.863281 -11.835938 4.875 -12.363281 4.6875 -12.9375 C 4.5 -13.46875 4.234375 -13.847656 3.890625 -14.078125 C 3.265625 -14.460938 2.46875 -14.488281 1.5 -14.15625 L -2.140625 -12.90625 C -3.078125 -12.507812 -3.472656 -11.921875 -3.328125 -11.140625 C -3.285156 -10.984375 -3.117188 -10.476562 -2.828125 -9.625 C -2.671875 -9.15625 -2.503906 -8.679688 -2.328125 -8.203125 C -2.160156 -7.722656 -2.015625 -7.316406 -1.890625 -6.984375 C -1.773438 -6.648438 -1.710938 -6.488281 -1.703125 -6.5 L -0.640625 -3.390625 C -0.285156 -2.359375 0.03125 -1.601562 0.3125 -1.125 C 0.601562 -0.65625 0.96875 -0.40625 1.40625 -0.375 C 1.851562 -0.34375 2.476562 -0.46875 3.28125 -0.75 Z M 3.28125 -0.75 "
           id="path4725" />
      </g>
    </g>
  </g>
  <g
     fill="#000000"
     fill-opacity="1"
     id="g4739"
     inkscape:export-xdpi="96"
     inkscape:export-ydpi="96">
    <g
       transform="translate(181.326274, 101.977222)"
       id="g4737">
      <g
         id="g4735">
        <path
           d="M 5.265625 0.25 C 6.390625 0.25 7.191406 0.160156 7.671875 -0.015625 C 8.148438 -0.203125 8.445312 -0.640625 8.5625 -1.328125 L 8.578125 -1.71875 C 8.578125 -2.375 8.378906 -2.828125 7.984375 -3.078125 C 7.585938 -3.335938 7.0625 -3.476562 6.40625 -3.5 C 5.75 -3.53125 5.269531 -3.550781 4.96875 -3.5625 C 4.800781 -3.5625 4.671875 -3.5625 4.578125 -3.5625 C 4.492188 -3.570312 4.4375 -3.582031 4.40625 -3.59375 C 4.382812 -3.601562 4.375 -3.625 4.375 -3.65625 C 4.394531 -3.875 4.410156 -4.460938 4.421875 -5.421875 C 4.429688 -6.378906 4.4375 -7.175781 4.4375 -7.8125 C 4.4375 -8.445312 4.445312 -8.957031 4.46875 -9.34375 L 4.46875 -9.859375 C 4.476562 -10.003906 4.484375 -10.125 4.484375 -10.21875 C 4.484375 -10.320312 4.488281 -10.40625 4.5 -10.46875 L 4.5 -10.6875 L 4.515625 -10.6875 C 4.503906 -10.988281 4.445312 -11.304688 4.34375 -11.640625 C 4.238281 -11.972656 4.046875 -12.265625 3.765625 -12.515625 C 3.492188 -12.765625 3.066406 -12.890625 2.484375 -12.890625 C 1.960938 -12.890625 1.550781 -12.769531 1.25 -12.53125 C 0.957031 -12.300781 0.753906 -12.019531 0.640625 -11.6875 C 0.523438 -11.351562 0.46875 -11.023438 0.46875 -10.703125 L 0.46875 -1.53125 C 0.46875 -0.988281 0.65625 -0.554688 1.03125 -0.234375 C 1.414062 0.078125 1.816406 0.234375 2.234375 0.234375 Z M 5.265625 0.25 "
           id="path4733" />
      </g>
    </g>
  </g>
  <g
     fill="#000000"
     fill-opacity="1"
     id="g4747"
     inkscape:export-xdpi="96"
     inkscape:export-ydpi="96">
    <g
       transform="translate(192.282291, 101.822477)"
       id="g4745">
      <g
         id="g4743">
        <path
           d="M 1.265625 0.34375 C 1.679688 0.414062 2.066406 0.347656 2.421875 0.140625 C 2.785156 -0.0546875 3.097656 -0.359375 3.359375 -0.765625 C 3.390625 -0.828125 3.429688 -0.875 3.484375 -0.90625 C 3.535156 -0.9375 3.695312 -0.929688 3.96875 -0.890625 L 5.109375 -0.6875 L 6.421875 -0.484375 C 6.671875 -0.441406 6.828125 -0.289062 6.890625 -0.03125 C 7.023438 0.394531 7.238281 0.734375 7.53125 0.984375 C 7.820312 1.234375 8.140625 1.382812 8.484375 1.4375 C 8.796875 1.488281 9.097656 1.460938 9.390625 1.359375 C 9.679688 1.253906 9.921875 1.078125 10.109375 0.828125 C 10.242188 0.617188 10.328125 0.40625 10.359375 0.1875 C 10.410156 -0.0820312 10.378906 -0.492188 10.265625 -1.046875 C 10.109375 -1.804688 9.867188 -3.226562 9.546875 -5.3125 C 9.296875 -6.769531 9.070312 -8 8.875 -9 C 8.6875 -10 8.488281 -10.691406 8.28125 -11.078125 C 7.957031 -11.566406 7.539062 -11.851562 7.03125 -11.9375 C 6.582031 -12.007812 6.15625 -11.914062 5.75 -11.65625 C 5.675781 -11.59375 5.597656 -11.53125 5.515625 -11.46875 C 5.390625 -11.34375 5.128906 -10.945312 4.734375 -10.28125 C 4.546875 -9.988281 2.976562 -7.390625 0.03125 -2.484375 C -0.113281 -2.210938 -0.207031 -1.941406 -0.25 -1.671875 C -0.3125 -1.335938 -0.285156 -0.992188 -0.171875 -0.640625 C -0.078125 -0.335938 0.0546875 -0.128906 0.234375 -0.015625 C 0.421875 0.0859375 0.597656 0.164062 0.765625 0.21875 L 0.890625 0.25 C 1.023438 0.300781 1.148438 0.332031 1.265625 0.34375 Z M 5.640625 -3.890625 C 5.460938 -3.921875 5.375 -3.957031 5.375 -4 C 5.445312 -4.09375 5.546875 -4.210938 5.671875 -4.359375 C 5.796875 -4.515625 5.898438 -4.660156 5.984375 -4.796875 C 6.015625 -4.796875 6.035156 -4.789062 6.046875 -4.78125 C 6.085938 -4.507812 6.132812 -4.289062 6.1875 -4.125 C 6.226562 -3.988281 6.242188 -3.898438 6.234375 -3.859375 C 6.234375 -3.835938 6.222656 -3.828125 6.203125 -3.828125 Z M 5.640625 -3.890625 "
           id="path4741" />
      </g>
    </g>
  </g>
  <g
     fill="#000000"
     fill-opacity="1"
     id="g4755"
     inkscape:export-xdpi="96"
     inkscape:export-ydpi="96">
    <g
       transform="translate(219.356734, 108.98538)"
       id="g4753">
      <g
         id="g4751">
        <path
           d="M 4.59375 2.578125 C 5.601562 3.078125 6.363281 3.351562 6.875 3.40625 C 7.382812 3.457031 7.84375 3.203125 8.25 2.640625 L 8.4375 2.3125 C 8.726562 1.71875 8.753906 1.21875 8.515625 0.8125 C 8.273438 0.40625 7.867188 0.046875 7.296875 -0.265625 C 6.722656 -0.585938 6.300781 -0.820312 6.03125 -0.96875 C 5.882812 -1.039062 5.773438 -1.097656 5.703125 -1.140625 C 5.628906 -1.179688 5.578125 -1.210938 5.546875 -1.234375 C 5.523438 -1.265625 5.523438 -1.289062 5.546875 -1.3125 C 5.660156 -1.5 5.9375 -2.019531 6.375 -2.875 C 6.820312 -3.726562 7.1875 -4.4375 7.46875 -5 C 7.75 -5.570312 7.988281 -6.023438 8.1875 -6.359375 L 8.40625 -6.8125 C 8.488281 -6.945312 8.550781 -7.054688 8.59375 -7.140625 C 8.632812 -7.234375 8.675781 -7.300781 8.71875 -7.34375 L 8.8125 -7.546875 C 8.945312 -7.816406 9.039062 -8.125 9.09375 -8.46875 C 9.15625 -8.8125 9.113281 -9.15625 8.96875 -9.5 C 8.832031 -9.851562 8.503906 -10.160156 7.984375 -10.421875 C 7.515625 -10.648438 7.09375 -10.722656 6.71875 -10.640625 C 6.351562 -10.566406 6.046875 -10.40625 5.796875 -10.15625 C 5.554688 -9.914062 5.363281 -9.65625 5.21875 -9.375 L 1.109375 -1.171875 C 0.867188 -0.679688 0.84375 -0.210938 1.03125 0.234375 C 1.226562 0.691406 1.515625 1.015625 1.890625 1.203125 Z M 4.59375 2.578125 "
           id="path4749" />
      </g>
    </g>
  </g>
  <g
     fill="#000000"
     fill-opacity="1"
     id="g4763"
     inkscape:export-xdpi="96"
     inkscape:export-ydpi="96">
    <g
       transform="translate(230.242815, 114.554766)"
       id="g4761">
      <g
         id="g4759">
        <path
           d="M 2.796875 2.421875 C 3.109375 2.640625 3.488281 2.71875 3.9375 2.65625 C 4.394531 2.601562 4.867188 2.363281 5.359375 1.9375 C 5.429688 1.851562 5.6875 1.507812 6.125 0.90625 C 6.96875 -0.269531 7.925781 -1.617188 9 -3.140625 L 10.53125 -5.296875 C 10.832031 -5.722656 11.023438 -6.050781 11.109375 -6.28125 C 11.203125 -6.519531 11.210938 -6.773438 11.140625 -7.046875 C 10.992188 -7.609375 10.71875 -8.035156 10.3125 -8.328125 C 9.894531 -8.609375 9.394531 -8.710938 8.8125 -8.640625 C 8.226562 -8.566406 7.515625 -8.4375 6.671875 -8.25 C 6.078125 -8.09375 5.664062 -7.847656 5.4375 -7.515625 C 5.207031 -7.191406 5.132812 -6.84375 5.21875 -6.46875 C 5.300781 -6.09375 5.515625 -5.78125 5.859375 -5.53125 L 5.921875 -5.484375 C 5.960938 -5.460938 5.953125 -5.398438 5.890625 -5.296875 C 5.796875 -5.015625 5.328125 -4.273438 4.484375 -3.078125 L 3.984375 -2.40625 C 3.753906 -2.070312 3.550781 -1.753906 3.375 -1.453125 C 3.195312 -1.160156 3.007812 -0.878906 2.8125 -0.609375 L 2.65625 -0.390625 C 2.238281 0.203125 2.066406 0.753906 2.140625 1.265625 C 2.222656 1.785156 2.441406 2.171875 2.796875 2.421875 Z M 2.796875 2.421875 "
           id="path4757" />
      </g>
    </g>
  </g>
  <g
     fill="#000000"
     fill-opacity="1"
     id="g4771"
     inkscape:export-xdpi="96"
     inkscape:export-ydpi="96">
    <g
       transform="translate(148.175087, 259.154774)"
       id="g4769">
      <g
         id="g4767">
        <path
           d="M 1.15625 0.609375 C 1.550781 0.765625 1.941406 0.78125 2.328125 0.65625 C 2.722656 0.539062 3.097656 0.316406 3.453125 -0.015625 C 3.492188 -0.0664062 3.539062 -0.101562 3.59375 -0.125 C 3.65625 -0.144531 3.8125 -0.101562 4.0625 0 L 5.140625 0.453125 L 6.375 0.9375 C 6.613281 1.03125 6.734375 1.207031 6.734375 1.46875 C 6.773438 1.914062 6.910156 2.296875 7.140625 2.609375 C 7.378906 2.921875 7.65625 3.140625 7.96875 3.265625 C 8.269531 3.378906 8.570312 3.414062 8.875 3.375 C 9.175781 3.332031 9.445312 3.210938 9.6875 3.015625 C 9.875 2.828125 10.003906 2.632812 10.078125 2.4375 C 10.179688 2.175781 10.238281 1.769531 10.25 1.21875 C 10.257812 0.4375 10.332031 -1.003906 10.46875 -3.109375 C 10.550781 -4.578125 10.609375 -5.820312 10.640625 -6.84375 C 10.671875 -7.863281 10.625 -8.585938 10.5 -9.015625 C 10.289062 -9.566406 9.945312 -9.941406 9.46875 -10.140625 C 9.050781 -10.304688 8.613281 -10.300781 8.15625 -10.125 C 8.0625 -10.070312 7.96875 -10.023438 7.875 -9.984375 C 7.726562 -9.890625 7.394531 -9.5625 6.875 -9 C 6.613281 -8.757812 4.515625 -6.566406 0.578125 -2.421875 C 0.367188 -2.191406 0.210938 -1.945312 0.109375 -1.6875 C -0.015625 -1.375 -0.0625 -1.023438 -0.03125 -0.640625 C -0.0078125 -0.328125 0.078125 -0.0976562 0.234375 0.046875 C 0.398438 0.191406 0.554688 0.304688 0.703125 0.390625 L 0.8125 0.4375 C 0.9375 0.507812 1.050781 0.566406 1.15625 0.609375 Z M 6.34375 -2.5625 C 6.1875 -2.632812 6.117188 -2.691406 6.140625 -2.734375 C 6.210938 -2.804688 6.328125 -2.90625 6.484375 -3.03125 C 6.648438 -3.15625 6.78125 -3.273438 6.875 -3.390625 C 6.90625 -3.378906 6.925781 -3.363281 6.9375 -3.34375 C 6.925781 -3.070312 6.925781 -2.847656 6.9375 -2.671875 C 6.957031 -2.535156 6.960938 -2.445312 6.953125 -2.40625 C 6.941406 -2.382812 6.925781 -2.378906 6.90625 -2.390625 Z M 6.34375 -2.5625 "
           id="path4765" />
      </g>
    </g>
  </g>
  <g
     fill="#000000"
     fill-opacity="1"
     id="g4779"
     inkscape:export-xdpi="96"
     inkscape:export-ydpi="96">
    <g
       transform="translate(191.821291, 267.88925)"
       id="g4777">
      <g
         id="g4775">
        <path
           d="M 1.296875 -0.03125 C 1.722656 -0.0820312 2.078125 -0.257812 2.359375 -0.5625 C 2.640625 -0.863281 2.851562 -1.242188 3 -1.703125 C 3.007812 -1.765625 3.03125 -1.816406 3.0625 -1.859375 C 3.101562 -1.910156 3.257812 -1.957031 3.53125 -2 L 4.6875 -2.125 L 6.015625 -2.296875 C 6.265625 -2.335938 6.453125 -2.242188 6.578125 -2.015625 C 6.847656 -1.648438 7.160156 -1.390625 7.515625 -1.234375 C 7.867188 -1.078125 8.210938 -1.019531 8.546875 -1.0625 C 8.867188 -1.101562 9.148438 -1.21875 9.390625 -1.40625 C 9.640625 -1.59375 9.8125 -1.835938 9.90625 -2.140625 C 9.976562 -2.367188 10.003906 -2.59375 9.984375 -2.8125 C 9.941406 -3.09375 9.796875 -3.472656 9.546875 -3.953125 C 9.160156 -4.640625 8.507812 -5.9375 7.59375 -7.84375 C 6.957031 -9.164062 6.398438 -10.28125 5.921875 -11.1875 C 5.441406 -12.09375 5.039062 -12.695312 4.71875 -13 C 4.28125 -13.382812 3.800781 -13.539062 3.28125 -13.46875 C 2.84375 -13.40625 2.460938 -13.1875 2.140625 -12.8125 C 2.085938 -12.726562 2.035156 -12.644531 1.984375 -12.5625 C 1.898438 -12.40625 1.765625 -11.953125 1.578125 -11.203125 C 1.472656 -10.878906 0.71875 -7.941406 -0.6875 -2.390625 C -0.75 -2.097656 -0.757812 -1.8125 -0.71875 -1.53125 C -0.675781 -1.195312 -0.550781 -0.875 -0.34375 -0.5625 C -0.164062 -0.289062 0.0234375 -0.128906 0.234375 -0.078125 C 0.441406 -0.0234375 0.632812 -0.00390625 0.8125 -0.015625 L 0.921875 -0.015625 C 1.054688 -0.00390625 1.179688 -0.0078125 1.296875 -0.03125 Z M 4.265625 -5.34375 C 4.085938 -5.320312 4 -5.332031 4 -5.375 C 4.03125 -5.488281 4.082031 -5.632812 4.15625 -5.8125 C 4.238281 -6 4.296875 -6.171875 4.328125 -6.328125 C 4.359375 -6.328125 4.382812 -6.328125 4.40625 -6.328125 C 4.53125 -6.078125 4.644531 -5.878906 4.75 -5.734375 C 4.820312 -5.609375 4.863281 -5.523438 4.875 -5.484375 C 4.875 -5.460938 4.863281 -5.453125 4.84375 -5.453125 Z M 4.265625 -5.34375 "
           id="path4773" />
      </g>
    </g>
  </g>
  <g
     fill="#000000"
     fill-opacity="1"
     id="g4787"
     inkscape:export-xdpi="96"
     inkscape:export-ydpi="96">
    <g
       transform="translate(180.189452, 267.87962)"
       id="g4785">
      <g
         id="g4783">
        <path
           d="M 5.265625 0.25 C 6.390625 0.25 7.191406 0.160156 7.671875 -0.015625 C 8.148438 -0.203125 8.445312 -0.640625 8.5625 -1.328125 L 8.578125 -1.71875 C 8.578125 -2.375 8.378906 -2.828125 7.984375 -3.078125 C 7.585938 -3.335938 7.0625 -3.476562 6.40625 -3.5 C 5.75 -3.53125 5.269531 -3.550781 4.96875 -3.5625 C 4.800781 -3.5625 4.671875 -3.5625 4.578125 -3.5625 C 4.492188 -3.570312 4.4375 -3.582031 4.40625 -3.59375 C 4.382812 -3.601562 4.375 -3.625 4.375 -3.65625 C 4.394531 -3.875 4.410156 -4.460938 4.421875 -5.421875 C 4.429688 -6.378906 4.4375 -7.175781 4.4375 -7.8125 C 4.4375 -8.445312 4.445312 -8.957031 4.46875 -9.34375 L 4.46875 -9.859375 C 4.476562 -10.003906 4.484375 -10.125 4.484375 -10.21875 C 4.484375 -10.320312 4.488281 -10.40625 4.5 -10.46875 L 4.5 -10.6875 L 4.515625 -10.6875 C 4.503906 -10.988281 4.445312 -11.304688 4.34375 -11.640625 C 4.238281 -11.972656 4.046875 -12.265625 3.765625 -12.515625 C 3.492188 -12.765625 3.066406 -12.890625 2.484375 -12.890625 C 1.960938 -12.890625 1.550781 -12.769531 1.25 -12.53125 C 0.957031 -12.300781 0.753906 -12.019531 0.640625 -11.6875 C 0.523438 -11.351562 0.46875 -11.023438 0.46875 -10.703125 L 0.46875 -1.53125 C 0.46875 -0.988281 0.65625 -0.554688 1.03125 -0.234375 C 1.414062 0.078125 1.816406 0.234375 2.234375 0.234375 Z M 5.265625 0.25 "
           id="path4781" />
      </g>
    </g>
  </g>
  <g
     fill="#000000"
     fill-opacity="1"
     id="g4795"
     inkscape:export-xdpi="96"
     inkscape:export-ydpi="96">
    <g
       transform="translate(221.341305, 260.022825)"
       id="g4793">
      <g
         id="g4791">
        <path
           d="M 4.828125 -2.109375 C 5.835938 -2.597656 6.519531 -3.03125 6.875 -3.40625 C 7.226562 -3.78125 7.304688 -4.300781 7.109375 -4.96875 L 6.9375 -5.328125 C 6.65625 -5.910156 6.28125 -6.226562 5.8125 -6.28125 C 5.34375 -6.34375 4.804688 -6.238281 4.203125 -5.96875 C 3.597656 -5.707031 3.15625 -5.515625 2.875 -5.390625 C 2.726562 -5.316406 2.613281 -5.265625 2.53125 -5.234375 C 2.457031 -5.203125 2.40625 -5.179688 2.375 -5.171875 C 2.34375 -5.160156 2.320312 -5.171875 2.3125 -5.203125 C 2.238281 -5.410156 1.992188 -5.945312 1.578125 -6.8125 C 1.160156 -7.675781 0.8125 -8.390625 0.53125 -8.953125 C 0.257812 -9.523438 0.046875 -9.992188 -0.109375 -10.359375 L -0.328125 -10.8125 C -0.378906 -10.957031 -0.425781 -11.070312 -0.46875 -11.15625 C -0.519531 -11.25 -0.554688 -11.320312 -0.578125 -11.375 L -0.6875 -11.578125 L -0.671875 -11.578125 C -0.804688 -11.847656 -0.992188 -12.109375 -1.234375 -12.359375 C -1.472656 -12.609375 -1.769531 -12.785156 -2.125 -12.890625 C -2.488281 -12.992188 -2.929688 -12.914062 -3.453125 -12.65625 C -3.921875 -12.425781 -4.234375 -12.140625 -4.390625 -11.796875 C -4.554688 -11.460938 -4.617188 -11.117188 -4.578125 -10.765625 C -4.535156 -10.421875 -4.441406 -10.101562 -4.296875 -9.8125 L -0.25 -1.578125 C -0.0078125 -1.085938 0.347656 -0.785156 0.828125 -0.671875 C 1.304688 -0.554688 1.734375 -0.59375 2.109375 -0.78125 Z M 4.828125 -2.109375 "
           id="path4789" />
      </g>
    </g>
  </g>
  <g
     fill="#000000"
     fill-opacity="1"
     id="g4803"
     inkscape:export-xdpi="96"
     inkscape:export-ydpi="96">
    <g
       transform="translate(231.022135, 255.637751)"
       id="g4801">
      <g
         id="g4799">
        <path
           d="M 4.09375 -2.1875 C 4.726562 -2.601562 5.226562 -3.082031 5.59375 -3.625 C 5.957031 -4.175781 6.15625 -4.757812 6.1875 -5.375 C 6.226562 -5.988281 6.054688 -6.585938 5.671875 -7.171875 C 5.554688 -7.347656 5.421875 -7.53125 5.265625 -7.71875 C 4.554688 -8.414062 3.703125 -8.828125 2.703125 -8.953125 C 2.660156 -8.960938 2.628906 -8.976562 2.609375 -9 C 2.597656 -9.03125 2.597656 -9.101562 2.609375 -9.21875 C 2.785156 -10.488281 2.570312 -11.585938 1.96875 -12.515625 C 1.601562 -13.066406 1.109375 -13.46875 0.484375 -13.71875 C -0.140625 -13.96875 -0.894531 -13.984375 -1.78125 -13.765625 C -2.195312 -13.640625 -2.582031 -13.460938 -2.9375 -13.234375 C -3.601562 -12.796875 -4.128906 -12.207031 -4.515625 -11.46875 C -4.910156 -10.738281 -5.125 -9.984375 -5.15625 -9.203125 C -5.15625 -8.671875 -5.054688 -8.253906 -4.859375 -7.953125 C -4.484375 -7.378906 -3.941406 -7.1875 -3.234375 -7.375 C -2.878906 -7.5 -2.609375 -7.617188 -2.421875 -7.734375 C -2.242188 -7.847656 -2.109375 -7.988281 -2.015625 -8.15625 C -1.921875 -8.320312 -1.820312 -8.550781 -1.71875 -8.84375 C -1.6875 -8.914062 -1.648438 -8.988281 -1.609375 -9.0625 C -1.578125 -9.144531 -1.535156 -9.203125 -1.484375 -9.234375 C -1.421875 -9.273438 -1.347656 -9.289062 -1.265625 -9.28125 C -1.191406 -9.28125 -1.117188 -9.234375 -1.046875 -9.140625 C -1.003906 -9.078125 -1.007812 -8.972656 -1.0625 -8.828125 C -1.125 -8.679688 -1.242188 -8.429688 -1.421875 -8.078125 C -1.503906 -7.910156 -1.609375 -7.734375 -1.734375 -7.546875 C -1.859375 -7.367188 -1.945312 -7.191406 -2 -7.015625 C -2.132812 -6.609375 -2.082031 -6.222656 -1.84375 -5.859375 C -1.644531 -5.546875 -1.351562 -5.300781 -0.96875 -5.125 C -0.59375 -4.945312 -0.222656 -4.921875 0.140625 -5.046875 C 0.296875 -5.097656 0.441406 -5.160156 0.578125 -5.234375 C 0.710938 -5.304688 0.828125 -5.363281 0.921875 -5.40625 C 1.023438 -5.445312 1.085938 -5.445312 1.109375 -5.40625 C 1.140625 -5.375 1.164062 -5.34375 1.1875 -5.3125 C 1.207031 -5.289062 1.222656 -5.257812 1.234375 -5.21875 C 1.253906 -5.113281 1.175781 -5 1 -4.875 L 0.8125 -4.78125 C 0.269531 -4.625 -0.1875 -4.421875 -0.5625 -4.171875 C -1.164062 -3.773438 -1.378906 -3.253906 -1.203125 -2.609375 C -1.160156 -2.484375 -1.09375 -2.347656 -1 -2.203125 C -0.800781 -1.910156 -0.503906 -1.640625 -0.109375 -1.390625 C 0.273438 -1.148438 0.742188 -1.0625 1.296875 -1.125 C 2.378906 -1.320312 3.3125 -1.675781 4.09375 -2.1875 Z M 4.09375 -2.1875 "
           id="path4797" />
      </g>
    </g>
  </g>
  <g
     id="g4811"
     fill-opacity="1"
     fill="#000000"
     inkscape:export-xdpi="96"
     inkscape:export-ydpi="96">
    <g
       transform="translate(180.63755, 217.570338)"
       id="g4809">
      <g
         id="g4807">
        <path
           d="M 3.171875 0.4375 C 3.867188 0.4375 4.453125 0.203125 4.921875 -0.265625 C 5.390625 -0.742188 5.625 -1.492188 5.625 -2.515625 C 5.664062 -3.460938 5.6875 -4.148438 5.6875 -4.578125 C 5.6875 -5.140625 5.722656 -5.441406 5.796875 -5.484375 C 5.878906 -5.535156 6.71875 -5.5625 8.3125 -5.5625 C 8.789062 -5.5625 9.175781 -5.796875 9.46875 -6.265625 C 9.757812 -6.734375 9.90625 -7.320312 9.90625 -8.03125 C 9.90625 -9.101562 9.546875 -9.800781 8.828125 -10.125 C 8.546875 -10.226562 8.210938 -10.28125 7.828125 -10.28125 L 7.578125 -10.28125 C 6.585938 -10.28125 6.046875 -10.328125 5.953125 -10.421875 C 5.898438 -10.460938 5.875 -10.539062 5.875 -10.65625 C 5.875 -11.132812 5.914062 -11.394531 6 -11.4375 C 6.082031 -11.488281 6.1875 -11.515625 6.3125 -11.515625 C 7.15625 -11.515625 7.914062 -11.535156 8.59375 -11.578125 C 9.113281 -11.617188 9.59375 -11.78125 10.03125 -12.0625 C 10.707031 -12.5 11.046875 -13.21875 11.046875 -14.21875 C 11.046875 -14.78125 10.941406 -15.234375 10.734375 -15.578125 C 10.523438 -15.921875 10.273438 -16.175781 9.984375 -16.34375 C 9.691406 -16.507812 9.398438 -16.59375 9.109375 -16.59375 L 6.703125 -16.5625 C 5.535156 -16.550781 4.222656 -16.546875 2.765625 -16.546875 C 2.222656 -16.546875 1.78125 -16.378906 1.4375 -16.046875 C 1.09375 -15.710938 0.890625 -15.296875 0.828125 -14.796875 C 0.804688 -14.703125 0.785156 -14.625 0.765625 -14.5625 C 0.742188 -14.5 0.734375 -14.398438 0.734375 -14.265625 L 0.734375 -13.828125 C 0.703125 -12.867188 0.6875 -11.578125 0.6875 -9.953125 C 0.664062 -9.660156 0.65625 -9.351562 0.65625 -9.03125 L 0.625 -9.03125 C 0.625 -5.90625 0.613281 -4.019531 0.59375 -3.375 C 0.59375 -2.582031 0.601562 -2.148438 0.625 -2.078125 C 0.625 -1.210938 0.84375 -0.578125 1.28125 -0.171875 C 1.726562 0.234375 2.359375 0.4375 3.171875 0.4375 Z M 3.171875 0.4375 "
           id="path4805" />
      </g>
    </g>
  </g>
  <g
     fill="#000000"
     fill-opacity="1"
     id="g4819"
     inkscape:export-xdpi="96"
     inkscape:export-ydpi="96">
    <g
       transform="translate(135.495977, 228.313329)"
       id="g4817">
      <g
         id="g4815">
        <path
           d="M 5.09375 0.296875 C 6.070312 0.296875 6.910156 0.0351562 7.609375 -0.484375 C 8.304688 -1.015625 8.84375 -1.664062 9.21875 -2.4375 C 9.601562 -3.21875 9.796875 -3.992188 9.796875 -4.765625 C 9.867188 -5.878906 9.90625 -6.867188 9.90625 -7.734375 C 9.90625 -8.390625 9.894531 -8.96875 9.875 -9.46875 L 9.859375 -10.515625 C 9.859375 -11.023438 9.738281 -11.453125 9.5 -11.796875 C 9.257812 -12.140625 8.976562 -12.390625 8.65625 -12.546875 C 8.332031 -12.710938 8.035156 -12.796875 7.765625 -12.796875 C 7.265625 -12.796875 6.816406 -12.570312 6.421875 -12.125 C 6.035156 -11.675781 5.828125 -11.160156 5.796875 -10.578125 C 5.765625 -9.441406 5.75 -8.367188 5.75 -7.359375 C 5.75 -6.285156 5.726562 -5.566406 5.6875 -5.203125 C 5.644531 -4.835938 5.503906 -4.65625 5.265625 -4.65625 C 5.023438 -4.65625 4.875 -4.820312 4.8125 -5.15625 C 4.757812 -5.488281 4.734375 -5.898438 4.734375 -6.390625 L 4.734375 -7.46875 L 4.71875 -8.265625 L 4.734375 -9.3125 C 4.734375 -9.988281 4.671875 -10.570312 4.546875 -11.0625 C 4.484375 -11.1875 4.398438 -11.359375 4.296875 -11.578125 C 3.878906 -12.367188 3.328125 -12.765625 2.640625 -12.765625 C 1.691406 -12.765625 1.046875 -12.378906 0.703125 -11.609375 C 0.421875 -10.972656 0.28125 -9.753906 0.28125 -7.953125 C 0.28125 -6.972656 0.320312 -5.957031 0.40625 -4.90625 C 0.4375 -4.375 0.539062 -3.804688 0.71875 -3.203125 C 0.90625 -2.597656 1.179688 -2.03125 1.546875 -1.5 C 1.921875 -0.976562 2.398438 -0.546875 2.984375 -0.203125 C 3.566406 0.128906 4.269531 0.296875 5.09375 0.296875 Z M 5.09375 0.296875 "
           id="path4813" />
      </g>
    </g>
  </g>
  <g
     fill="#000000"
     fill-opacity="1"
     id="g4827"
     inkscape:export-xdpi="96"
     inkscape:export-ydpi="96">
    <g
       transform="translate(226.226224, 228.313329)"
       id="g4825">
      <g
         id="g4823">
        <path
           d="M 4.875 0.25 C 5.625 0.25 6.347656 0.0703125 7.046875 -0.28125 C 7.742188 -0.632812 8.320312 -1.160156 8.78125 -1.859375 C 9.238281 -2.554688 9.46875 -3.234375 9.46875 -3.890625 C 9.46875 -4.617188 9.140625 -5.144531 8.484375 -5.46875 C 8.179688 -5.59375 7.914062 -5.65625 7.6875 -5.65625 C 7.351562 -5.65625 7.078125 -5.5625 6.859375 -5.375 C 6.648438 -5.195312 6.472656 -5.007812 6.328125 -4.8125 C 6.210938 -4.675781 6.101562 -4.554688 6 -4.453125 C 5.894531 -4.347656 5.785156 -4.289062 5.671875 -4.28125 C 5.503906 -4.28125 5.296875 -4.34375 5.046875 -4.46875 C 4.796875 -4.601562 4.578125 -4.8125 4.390625 -5.09375 C 4.203125 -5.375 4.109375 -5.75 4.109375 -6.21875 C 4.117188 -6.46875 4.171875 -6.738281 4.265625 -7.03125 C 4.359375 -7.332031 4.492188 -7.59375 4.671875 -7.8125 C 4.847656 -8.03125 5.050781 -8.140625 5.28125 -8.140625 C 5.414062 -8.140625 5.550781 -8.085938 5.6875 -7.984375 C 5.988281 -7.816406 6.289062 -7.734375 6.59375 -7.734375 C 6.832031 -7.734375 7.125 -7.785156 7.46875 -7.890625 C 7.863281 -8.035156 8.15625 -8.257812 8.34375 -8.5625 C 8.53125 -8.875 8.625 -9.21875 8.625 -9.59375 C 8.625 -10.007812 8.503906 -10.414062 8.265625 -10.8125 C 7.828125 -11.488281 7.300781 -11.988281 6.6875 -12.3125 C 6.082031 -12.644531 5.457031 -12.8125 4.8125 -12.8125 C 4.101562 -12.8125 3.421875 -12.625 2.765625 -12.25 C 2.117188 -11.875 1.570312 -11.304688 1.125 -10.546875 C 0.332031 -9.191406 -0.0625 -7.703125 -0.0625 -6.078125 C -0.0625 -4.867188 0.160156 -3.710938 0.609375 -2.609375 C 1.023438 -1.660156 1.617188 -0.945312 2.390625 -0.46875 C 3.171875 0.0078125 4 0.25 4.875 0.25 Z M 4.875 0.25 "
           id="path4821" />
      </g>
    </g>
  </g>
</svg>
